<?xml version="1.0" encoding="UTF-8" standalone="no"?>
<?xml-stylesheet href="style.css" type="text/css"?><svg
   xmlns:dc="http://purl.org/dc/elements/1.1/"
   xmlns:cc="http://creativecommons.org/ns#"
   xmlns:rdf="http://www.w3.org/1999/02/22-rdf-syntax-ns#"
   xmlns:svg="http://www.w3.org/2000/svg"
   xmlns="http://www.w3.org/2000/svg"
   xmlns:xlink="http://www.w3.org/1999/xlink"
   xmlns:sodipodi="http://sodipodi.sourceforge.net/DTD/sodipodi-0.dtd"
   xmlns:inkscape="http://www.inkscape.org/namespaces/inkscape"
   version="1.1"
   width="768"
   height="768"
   viewBox="0 0 768 768"
   id="svg2"
   inkscape:version="0.91 r13725"
   sodipodi:docname="circ0.svg">
  <metadata
     id="metadata30">
    <rdf:RDF>
      <cc:Work
         rdf:about="">
        <dc:format>image/svg+xml</dc:format>
        <dc:type
           rdf:resource="http://purl.org/dc/dcmitype/StillImage" />
      </cc:Work>
    </rdf:RDF>
  </metadata>
  <sodipodi:namedview
     pagecolor="#ffffff"
     bordercolor="#666666"
     borderopacity="1"
     objecttolerance="10"
     gridtolerance="10"
     guidetolerance="10"
     inkscape:pageopacity="0"
     inkscape:pageshadow="2"
     inkscape:window-width="1862"
     inkscape:window-height="1001"
     id="namedview28"
     showgrid="false"
     inkscape:zoom="0.86915208"
     inkscape:cx="395.76012"
     inkscape:cy="361.0451"
     inkscape:window-x="0"
     inkscape:window-y="0"
     inkscape:window-maximized="0"
     inkscape:current-layer="svg2" />
  <defs
     id="defs4">
    <g
       id="g1">
      <circle
         class="e"
         cx="-192"
         r="192"
         id="circle7" />
      <circle
         class="m"
         r="0"
         id="circle9" />
      <circle
         class="m"
         r="384"
         id="circle11" />
      <circle
         class="e"
         cx="192"
         r="192"
         id="circle13" />
      <line
         class="e"
         x1="0"
         y1="384"
         x2="0"
         y2="-384"
         id="line15" />
      <circle
         class="shell"
         r="384"
         id="circle17" />
      <circle
         class="unit"
         r="384"
         id="circle19" />
      <circle
         class="unit"
         cx="192"
         r="192"
         id="circle21" />
      <circle
         class="unit"
         cx="-192"
         r="192"
         id="circle23" />
    </g>
  </defs>
  <g
     id="g"
     transform="translate(384,384)"
     style="fill:#000000;fill-opacity:1">
    <use
       xlink:href="#g1"
       transform="scale(1)"
       id="use26"
       style="fill:#000000;fill-opacity:1" />
    <!--    <use xlink:href="#g1"/> -->
  </g>
  <g
     style="fill:#ffffff;fill-opacity:1"
     transform="matrix(0.76929143,0,0,0.76929143,426,384)"
     id="g8098">
    <use
       style="fill:#ffffff;fill-opacity:1"
       id="use8100"
       xlink:href="#g1"
       x="0"
       y="0"
       width="100%"
       height="100%"
       transform="translate(10.39918,0)" />
    <!--    <use xlink:href="#g1"/> -->
  </g>
  <g
     id="g8102"
     transform="matrix(0.54066344,0,0,0.55138269,485.17746,384)"
     style="fill:#000000;fill-opacity:1">
    <use
       height="100%"
       width="100%"
       y="0"
       x="0"
       xlink:href="#g1"
       id="use8104"
       style="fill:#000000;fill-opacity:1" />
    <!--    <use xlink:href="#g1"/> -->
  </g>
  <g
     style="fill:#ffffff;fill-opacity:1"
     transform="matrix(0.30598479,0,0,0.31205127,532,384)"
     id="g8106">
    <use
       style="fill:#ffffff;fill-opacity:1"
       id="use8108"
       xlink:href="#g1"
       x="0"
       y="0"
       width="100%"
       height="100%" />
    <!--    <use xlink:href="#g1"/> -->
  </g>
  <g
     style="font-style:normal;font-weight:normal;font-size:40px;line-height:125%;font-family:Sans;letter-spacing:0px;word-spacing:0px;fill:#ffffff;fill-opacity:1;stroke:none;stroke-width:1px;stroke-linecap:butt;stroke-linejoin:miter;stroke-opacity:1"
     id="text8110"
     transform="matrix(2.3787188,0,0,2.3787188,374.99428,-221.13886)">
    <path
       d="m -121.812,254.50439 q 0,6.03516 -1.52343,9.16016 -2.30469,4.72656 -7.07032,4.72656 -4.41406,0 -6.71875,-4.08203 -1.8164,-3.20312 -1.8164,-9.80469 0,-6.15234 1.48437,-9.27734 2.28516,-4.82422 7.08985,-4.82422 4.64843,0 6.93359,4.53125 1.62109,3.22266 1.62109,9.57031 z m -3.3789,1.99219 0,-5.07812 q 0,-4.21875 -0.72266,-6.42578 -1.19141,-3.71094 -4.49219,-3.71094 -3.28125,0 -4.47265,3.73047 -0.72266,2.22656 -0.72266,6.42578 0,0.80078 0.0195,2.38281 0,1.58203 0,2.36328 0,4.66797 0.64453,7.03125 1.15235,4.29688 4.53125,4.29688 3.35938,0 4.55078,-4.14063 0.66407,-2.34375 0.66407,-6.875 z"
       style="font-style:normal;font-variant:normal;font-weight:normal;font-stretch:semi-condensed;font-size:40px;line-height:125%;font-family:Symbola;-inkscape-font-specification:'Symbola, Semi-Condensed';text-align:start;writing-mode:lr-tb;text-anchor:start;fill:#ffffff"
       id="path8143"
       inkscape:connector-curvature="0" />
  </g>
  <g
     style="font-style:normal;font-variant:normal;font-weight:normal;font-stretch:semi-condensed;font-size:40px;line-height:125%;font-family:Symbola;-inkscape-font-specification:'Symbola, Semi-Condensed';text-align:start;letter-spacing:0px;word-spacing:0px;writing-mode:lr-tb;text-anchor:start;fill:#000000;fill-opacity:1;stroke:none;stroke-width:1px;stroke-linecap:butt;stroke-linejoin:miter;stroke-opacity:1"
     id="text8114"
     transform="matrix(2.3787188,0,0,2.3787188,522.26425,-417.14499)">
    <path
       d="m -124.79849,350.35156 q -1.38672,-0.11719 -2.65625,-0.11719 l -7.89063,0 q -1.25,0 -2.63672,0.11719 l 0,-1.25 q 0.23438,0 0.72266,0.0195 0.50781,0.0195 0.76172,0.0195 2.98828,0 3.41797,-0.83984 0.17578,-0.35156 0.17578,-1.03516 l 0,-21.23046 q -2.12891,1.05468 -5.3125,1.05468 l 0,-1.25 q 4.88281,0 7.40234,-2.59765 l 0.19532,0 q 0.5664,0 0.68359,0.27343 0.0586,0.11719 0.0586,0.76172 l 0,23.06641 q 0,0.64453 0.15625,0.97656 0.29297,0.64453 2.28516,0.78125 0.27344,0.0195 2.63672,0 l 0,1.25 z"
       id="path8140"
       inkscape:connector-curvature="0" />
  </g>
  <g
     style="font-style:normal;font-variant:normal;font-weight:normal;font-stretch:semi-condensed;font-size:40px;line-height:125%;font-family:Symbola;-inkscape-font-specification:'Symbola, Semi-Condensed';text-align:start;letter-spacing:0px;word-spacing:0px;writing-mode:lr-tb;text-anchor:start;fill:#ffffff;fill-opacity:1;stroke:none;stroke-width:1px;stroke-linecap:butt;stroke-linejoin:miter;stroke-opacity:1"
     id="text8118"
     transform="matrix(2.3787188,0,0,2.3787188,665.79215,-674.3836)">
    <path
       d="m -125.8781,433.58109 q -0.17578,0.9375 -0.97656,1.60156 -0.78125,0.64453 -1.71875,0.64453 -0.89844,0 -1.40625,-0.66406 -0.50781,-0.6836 -0.33203,-1.58203 0.17578,-0.87891 0.95703,-1.54297 0.80078,-0.66407 1.67969,-0.66407 0.9375,0 1.46484,0.64454 0.52734,0.64453 0.33203,1.5625 z m -2.22656,24.92187 q -3.92578,-0.11719 -4.33594,-0.11719 -0.80078,0 -4.58984,0.11719 l 0.2539,-1.28906 q 0.9961,0.0195 0.85938,0.0195 1.28906,0 1.79687,-0.25391 0.70313,-0.35156 0.9375,-1.54297 l 2.28516,-11.36718 q 0.33203,-1.66016 -0.39062,-2.05078 -0.41016,-0.23438 -2.2461,-0.21485 l 0.27344,-1.32812 5.89844,-0.44922 -3.125,15.66406 q -0.23438,1.15234 0.70312,1.42578 0.44922,0.13672 1.9336,0.0977 l -0.25391,1.28906 z"
       style="font-style:italic;fill:#ffffff"
       id="path8137"
       inkscape:connector-curvature="0" />
  </g>
  <g
     style="font-style:normal;font-variant:normal;font-weight:normal;font-stretch:semi-condensed;font-size:40px;line-height:125%;font-family:Symbola;-inkscape-font-specification:'Symbola, Semi-Condensed';text-align:start;letter-spacing:0px;word-spacing:0px;writing-mode:lr-tb;text-anchor:start;fill:#000000;fill-opacity:1;stroke:none;stroke-width:1px;stroke-linecap:butt;stroke-linejoin:miter;stroke-opacity:1"
     id="text8122"
     transform="matrix(2.3787188,0,0,2.3787188,802.7072,-854.26469)">
    <path
       d="m -126.69661,504.91498 q -0.17578,0.9375 -0.97656,1.60156 -0.78125,0.64453 -1.69922,0.64453 -0.89844,0 -1.40625,-0.66406 -0.50781,-0.68359 -0.33203,-1.58203 0.17578,-0.87891 0.95703,-1.54297 0.80078,-0.66406 1.67969,-0.66406 0.9375,0 1.44531,0.64453 0.52734,0.64453 0.33203,1.5625 z m -5.41016,27.01172 q -0.52734,2.59765 -2.42187,4.47265 -2.05078,2.01172 -4.58984,2.01172 -1.75782,0 -2.94922,-0.78125 -1.42578,-0.9375 -1.09375,-2.57812 0.15625,-0.82032 0.80078,-1.36719 0.64453,-0.54688 1.46484,-0.54688 0.82031,0 1.26953,0.54688 0.44922,0.54687 0.29297,1.36719 -0.3125,1.48437 -1.83594,1.875 1.03516,0.5664 2.12891,0.5664 3.08594,0 4.17969,-5.48828 l 3.35937,-16.8164 q 0.15625,-0.76172 0.0586,-1.17188 -0.23438,-0.97656 -3.24219,-0.87891 l 0.27344,-1.32812 6.40625,-0.44922 -4.10157,20.56641 z"
       style="font-style:italic"
       id="path8134"
       inkscape:connector-curvature="0" />
  </g>
  <g
     style="font-style:normal;font-variant:normal;font-weight:normal;font-stretch:semi-condensed;font-size:40px;line-height:125%;font-family:Symbola;-inkscape-font-specification:'Symbola, Semi-Condensed';text-align:start;letter-spacing:0px;word-spacing:0px;writing-mode:lr-tb;text-anchor:start;fill:#000000;fill-opacity:1;stroke:none;stroke-width:1px;stroke-linecap:butt;stroke-linejoin:miter;stroke-opacity:1"
     id="text8126"
     transform="matrix(2.3787188,0,0,2.3787188,896.09491,-1014.2569)">
    <path
       d="m -122.60739,602.32129 q -1.69922,-0.11719 -3.61328,-0.11719 -1.21094,0 -4.51172,0.11719 l 0.2539,-1.28906 q 1.48438,0.0391 1.67969,-0.95703 0.15625,-0.74219 -3.47656,-7.51954 l -3.10547,2.26563 -0.87891,4.33594 q -0.19531,0.99609 -0.0391,1.30859 0.17578,0.41016 1.09375,0.52734 0.42969,0.0586 1.83594,0.0391 l -0.25391,1.28906 q -2.34375,-0.11719 -4.58984,-0.11719 -0.72266,0 -4.57031,0.11719 l 0.2539,-1.28906 q 0.19532,0 0.66407,0.0195 0.42968,0 0.66406,0 1.93359,0 2.30469,-1.89453 l 4.35546,-21.77735 q 0.35157,-1.69922 -0.44921,-2.10937 -0.41016,-0.21485 -2.34375,-0.19531 l 0.2539,-1.3086 6.09375,-0.44922 -4.0039,20.0586 6.91406,-5.09766 q 1.07422,-0.80078 1.25,-1.64062 0.19531,-0.97657 -0.9961,-1.01563 l 0.27344,-1.32812 q 2.22656,0.15625 4.80469,0.15625 1.25,0 2.79297,-0.15625 l -0.27344,1.32812 q -2.61719,0.11719 -5.72266,2.22656 -3.92578,2.67578 -4.0039,3.04688 0,0.0391 0.19531,0.42969 l 3.82813,7.48046 q 0.68359,1.3086 1.30859,1.73829 0.76172,0.50781 2.26562,0.48828 l -0.2539,1.28906 z"
       style="font-style:italic"
       id="path8131"
       inkscape:connector-curvature="0" />
  </g>
</svg>
