<?xml version="1.0" encoding="UTF-8" standalone="no"?>
<!DOCTYPE svg PUBLIC "-//W3C//DTD SVG 1.1//EN"
 "http://www.w3.org/Graphics/SVG/1.1/DTD/svg11.dtd">
<!-- Generated by graphviz version 2.38.0 (20140413.2041)
 -->
<!-- Title: %187 Pages: 1 -->
<svg width="98pt" height="140pt"
 viewBox="0.00 0.00 98.00 140.10" xmlns="http://www.w3.org/2000/svg" xmlns:xlink="http://www.w3.org/1999/xlink">
<g id="graph0" class="graph" transform="scale(1 1) rotate(0) translate(4 136.099)">
<title>%187</title>
<polygon fill="white" stroke="none" points="-4,4 -4,-136.099 94,-136.099 94,4 -4,4"/>
<text text-anchor="middle" x="45" y="-8.89863" font-family="TimesNewRomanPSMT" font-size="14.00">2</text>
<!-- %189 -->
<g id="node1" class="node"><title>%189</title>
<ellipse fill="none" stroke="black" cx="45" cy="-114.099" rx="18" ry="18"/>
<text text-anchor="middle" x="45" y="-109.899" font-family="Symbola" font-size="14.00">+</text>
</g>
<!-- %191 -->
<g id="node2" class="node"><title>%191</title>
<ellipse fill="none" stroke="black" cx="18" cy="-42.0986" rx="18" ry="18"/>
<text text-anchor="middle" x="18" y="-37.8986" font-family="Symbola" font-size="14.00">1</text>
</g>
<!-- %189&#45;&gt;%191 -->
<g id="edge1" class="edge"><title>%191&#45;&gt;%191</title>
<path fill="none" stroke="black" d="M38.7378,-96.8633C35.5004,-88.4701 31.4747,-78.033 27.8339,-68.5938"/>
<polygon fill="black" stroke="black" points="31.0925,-67.3164 24.2282,-59.2459 24.5615,-69.8355 31.0925,-67.3164"/>
</g>
<!-- %195 -->
<g id="node3" class="node"><title>%195</title>
<ellipse fill="none" stroke="black" cx="72" cy="-42.0986" rx="18" ry="18"/>
<text text-anchor="middle" x="72" y="-38.9479" font-family="TimesNewRomanPSMT" font-size="14.00">1</text>
</g>
<!-- %189&#45;&gt;%195 -->
<g id="edge2" class="edge"><title>%195&#45;&gt;%195</title>
<path fill="none" stroke="black" d="M51.2622,-96.8633C54.4996,-88.4701 58.5253,-78.033 62.1661,-68.5938"/>
<polygon fill="black" stroke="black" points="65.4385,-69.8355 65.7718,-59.2459 58.9075,-67.3164 65.4385,-69.8355"/>
</g>
</g>
</svg>
