<?xml version="1.0" encoding="UTF-8" standalone="no"?>
<!DOCTYPE svg PUBLIC "-//W3C//DTD SVG 1.1//EN"
 "http://www.w3.org/Graphics/SVG/1.1/DTD/svg11.dtd">
<!-- Generated by graphviz version 2.38.0 (20140413.2041)
 -->
<!-- Title: %101 Pages: 1 -->
<svg width="125pt" height="212pt"
 viewBox="0.00 0.00 125.00 212.10" xmlns="http://www.w3.org/2000/svg" xmlns:xlink="http://www.w3.org/1999/xlink">
<g id="graph0" class="graph" transform="scale(1 1) rotate(0) translate(4 208.099)">
<title>%101</title>
<polygon fill="white" stroke="none" points="-4,4 -4,-208.099 121,-208.099 121,4 -4,4"/>
<text text-anchor="middle" x="58.5" y="-8.89863" font-family="TimesNewRomanPSMT" font-size="14.00">3</text>
<!-- %103 -->
<g id="node1" class="node"><title>%103</title>
<ellipse fill="none" stroke="black" cx="72" cy="-186.099" rx="18" ry="18"/>
<text text-anchor="middle" x="72" y="-181.899" font-family="Symbola" font-size="14.00">+</text>
</g>
<!-- %105 -->
<g id="node2" class="node"><title>%105</title>
<ellipse fill="none" stroke="black" cx="45" cy="-114.099" rx="18" ry="18"/>
<text text-anchor="middle" x="45" y="-109.899" font-family="Symbola" font-size="14.00">+</text>
</g>
<!-- %103&#45;&gt;%105 -->
<g id="edge1" class="edge"><title>%105&#45;&gt;%105</title>
<path fill="none" stroke="black" d="M65.7378,-168.863C62.5004,-160.47 58.4747,-150.033 54.8339,-140.594"/>
<polygon fill="black" stroke="black" points="58.0925,-139.316 51.2282,-131.246 51.5615,-141.836 58.0925,-139.316"/>
</g>
<!-- %109 -->
<g id="node3" class="node"><title>%109</title>
<ellipse fill="none" stroke="black" cx="99" cy="-114.099" rx="18" ry="18"/>
<text text-anchor="middle" x="99" y="-110.948" font-family="TimesNewRomanPSMT" font-size="14.00">1</text>
</g>
<!-- %103&#45;&gt;%109 -->
<g id="edge2" class="edge"><title>%109&#45;&gt;%109</title>
<path fill="none" stroke="black" d="M78.2622,-168.863C81.4996,-160.47 85.5253,-150.033 89.1661,-140.594"/>
<polygon fill="black" stroke="black" points="92.4385,-141.836 92.7718,-131.246 85.9075,-139.316 92.4385,-141.836"/>
</g>
<!-- %113 -->
<g id="node4" class="node"><title>%113</title>
<ellipse fill="none" stroke="black" cx="18" cy="-42.0986" rx="18" ry="18"/>
<text text-anchor="middle" x="18" y="-38.9479" font-family="TimesNewRomanPSMT" font-size="14.00">1</text>
</g>
<!-- %105&#45;&gt;%113 -->
<g id="edge3" class="edge"><title>%113&#45;&gt;%113</title>
<path fill="none" stroke="black" d="M38.7378,-96.8633C35.5004,-88.4701 31.4747,-78.033 27.8339,-68.5938"/>
<polygon fill="black" stroke="black" points="31.0925,-67.3164 24.2282,-59.2459 24.5615,-69.8355 31.0925,-67.3164"/>
</g>
<!-- %117 -->
<g id="node5" class="node"><title>%117</title>
<ellipse fill="none" stroke="black" cx="72" cy="-42.0986" rx="18" ry="18"/>
<text text-anchor="middle" x="72" y="-38.9479" font-family="TimesNewRomanPSMT" font-size="14.00">1</text>
</g>
<!-- %105&#45;&gt;%117 -->
<g id="edge4" class="edge"><title>%117&#45;&gt;%117</title>
<path fill="none" stroke="black" d="M51.2622,-96.8633C54.4996,-88.4701 58.5253,-78.033 62.1661,-68.5938"/>
<polygon fill="black" stroke="black" points="65.4385,-69.8355 65.7718,-59.2459 58.9075,-67.3164 65.4385,-69.8355"/>
</g>
</g>
</svg>
