<?xml version="1.0" encoding="UTF-8" standalone="no"?>
<!DOCTYPE svg PUBLIC "-//W3C//DTD SVG 1.1//EN"
 "http://www.w3.org/Graphics/SVG/1.1/DTD/svg11.dtd">
<!-- Generated by graphviz version 2.38.0 (20140413.2041)
 -->
<!-- Title: %41 Pages: 1 -->
<svg width="314pt" height="140pt"
 viewBox="0.00 0.00 314.00 140.10" xmlns="http://www.w3.org/2000/svg" xmlns:xlink="http://www.w3.org/1999/xlink">
<g id="graph0" class="graph" transform="scale(1 1) rotate(0) translate(4 136.099)">
<title>%41</title>
<polygon fill="white" stroke="none" points="-4,4 -4,-136.099 310,-136.099 310,4 -4,4"/>
<text text-anchor="middle" x="153" y="-8.89863" font-family="TimesNewRomanPSMT" font-size="14.00">4</text>
<!-- %43 -->
<g id="node1" class="node"><title>%43</title>
<ellipse fill="none" stroke="black" cx="45" cy="-114.099" rx="18" ry="18"/>
<text text-anchor="middle" x="45" y="-109.899" font-family="Symbola" font-size="14.00">+</text>
</g>
<!-- %45 -->
<g id="node2" class="node"><title>%45</title>
<ellipse fill="none" stroke="black" cx="18" cy="-42.0986" rx="18" ry="18"/>
<text text-anchor="middle" x="18" y="-37.8986" font-family="Symbola" font-size="14.00">2</text>
</g>
<!-- %43&#45;&gt;%45 -->
<g id="edge1" class="edge"><title>%45&#45;&gt;%45</title>
<path fill="none" stroke="black" d="M38.7378,-96.8633C35.5004,-88.4701 31.4747,-78.033 27.8339,-68.5938"/>
<polygon fill="black" stroke="black" points="31.0925,-67.3164 24.2282,-59.2459 24.5615,-69.8355 31.0925,-67.3164"/>
</g>
<!-- %49 -->
<g id="node3" class="node"><title>%49</title>
<ellipse fill="none" stroke="black" cx="72" cy="-42.0986" rx="18" ry="18"/>
<text text-anchor="middle" x="72" y="-38.9479" font-family="TimesNewRomanPSMT" font-size="14.00">2</text>
</g>
<!-- %43&#45;&gt;%49 -->
<g id="edge2" class="edge"><title>%49&#45;&gt;%49</title>
<path fill="none" stroke="black" d="M51.2622,-96.8633C54.4996,-88.4701 58.5253,-78.033 62.1661,-68.5938"/>
<polygon fill="black" stroke="black" points="65.4385,-69.8355 65.7718,-59.2459 58.9075,-67.3164 65.4385,-69.8355"/>
</g>
<!-- %53 -->
<g id="node4" class="node"><title>%53</title>
<ellipse fill="none" stroke="black" cx="153" cy="-114.099" rx="18" ry="18"/>
<text text-anchor="middle" x="153" y="-109.899" font-family="Symbola" font-size="14.00">×</text>
</g>
<!-- %55 -->
<g id="node5" class="node"><title>%55</title>
<ellipse fill="none" stroke="black" cx="126" cy="-42.0986" rx="18" ry="18"/>
<text text-anchor="middle" x="126" y="-37.8986" font-family="Symbola" font-size="14.00">2</text>
</g>
<!-- %53&#45;&gt;%55 -->
<g id="edge3" class="edge"><title>%55&#45;&gt;%55</title>
<path fill="none" stroke="black" d="M146.738,-96.8633C143.5,-88.4701 139.475,-78.033 135.834,-68.5938"/>
<polygon fill="black" stroke="black" points="139.093,-67.3164 132.228,-59.2459 132.562,-69.8355 139.093,-67.3164"/>
</g>
<!-- %59 -->
<g id="node6" class="node"><title>%59</title>
<ellipse fill="none" stroke="black" cx="180" cy="-42.0986" rx="18" ry="18"/>
<text text-anchor="middle" x="180" y="-38.9479" font-family="TimesNewRomanPSMT" font-size="14.00">2</text>
</g>
<!-- %53&#45;&gt;%59 -->
<g id="edge4" class="edge"><title>%59&#45;&gt;%59</title>
<path fill="none" stroke="black" d="M159.262,-96.8633C162.5,-88.4701 166.525,-78.033 170.166,-68.5938"/>
<polygon fill="black" stroke="black" points="173.438,-69.8355 173.772,-59.2459 166.907,-67.3164 173.438,-69.8355"/>
</g>
<!-- %63 -->
<g id="node7" class="node"><title>%63</title>
<ellipse fill="none" stroke="black" cx="261" cy="-114.099" rx="18" ry="18"/>
<text text-anchor="middle" x="261" y="-109.899" font-family="Symbola" font-size="14.00">^</text>
</g>
<!-- %65 -->
<g id="node8" class="node"><title>%65</title>
<ellipse fill="none" stroke="black" cx="234" cy="-42.0986" rx="18" ry="18"/>
<text text-anchor="middle" x="234" y="-37.8986" font-family="Symbola" font-size="14.00">2</text>
</g>
<!-- %63&#45;&gt;%65 -->
<g id="edge5" class="edge"><title>%65&#45;&gt;%65</title>
<path fill="none" stroke="black" d="M254.738,-96.8633C251.5,-88.4701 247.475,-78.033 243.834,-68.5938"/>
<polygon fill="black" stroke="black" points="247.093,-67.3164 240.228,-59.2459 240.562,-69.8355 247.093,-67.3164"/>
</g>
<!-- %69 -->
<g id="node9" class="node"><title>%69</title>
<ellipse fill="none" stroke="black" cx="288" cy="-42.0986" rx="18" ry="18"/>
<text text-anchor="middle" x="288" y="-38.9479" font-family="TimesNewRomanPSMT" font-size="14.00">2</text>
</g>
<!-- %63&#45;&gt;%69 -->
<g id="edge6" class="edge"><title>%69&#45;&gt;%69</title>
<path fill="none" stroke="black" d="M267.262,-96.8633C270.5,-88.4701 274.525,-78.033 278.166,-68.5938"/>
<polygon fill="black" stroke="black" points="281.438,-69.8355 281.772,-59.2459 274.907,-67.3164 281.438,-69.8355"/>
</g>
</g>
</svg>
