<?xml version="1.0" encoding="UTF-8" standalone="no"?>
<!DOCTYPE svg PUBLIC "-//W3C//DTD SVG 1.1//EN"
 "http://www.w3.org/Graphics/SVG/1.1/DTD/svg11.dtd">
<!-- Generated by graphviz version 2.38.0 (20140413.2041)
 -->
<!-- Title: %73 Pages: 1 -->
<svg width="206pt" height="212pt"
 viewBox="0.00 0.00 206.00 212.10" xmlns="http://www.w3.org/2000/svg" xmlns:xlink="http://www.w3.org/1999/xlink">
<g id="graph0" class="graph" transform="scale(1 1) rotate(0) translate(4 208.099)">
<title>%73</title>
<polygon fill="white" stroke="none" points="-4,4 -4,-208.099 202,-208.099 202,4 -4,4"/>
<text text-anchor="middle" x="99" y="-8.89863" font-family="TimesNewRomanPSMT" font-size="14.00">4</text>
<!-- %75 -->
<g id="node1" class="node"><title>%75</title>
<ellipse fill="none" stroke="black" cx="99" cy="-186.099" rx="18" ry="18"/>
<text text-anchor="middle" x="99" y="-181.899" font-family="Symbola" font-size="14.00">+</text>
</g>
<!-- %77 -->
<g id="node2" class="node"><title>%77</title>
<ellipse fill="none" stroke="black" cx="72" cy="-114.099" rx="18" ry="18"/>
<text text-anchor="middle" x="72" y="-109.899" font-family="Symbola" font-size="14.00">+</text>
</g>
<!-- %75&#45;&gt;%77 -->
<g id="edge1" class="edge"><title>%77&#45;&gt;%77</title>
<path fill="none" stroke="black" d="M92.7378,-168.863C89.5004,-160.47 85.4747,-150.033 81.8339,-140.594"/>
<polygon fill="black" stroke="black" points="85.0925,-139.316 78.2282,-131.246 78.5615,-141.836 85.0925,-139.316"/>
</g>
<!-- %81 -->
<g id="node3" class="node"><title>%81</title>
<ellipse fill="none" stroke="black" cx="126" cy="-114.099" rx="18" ry="18"/>
<text text-anchor="middle" x="126" y="-109.899" font-family="Symbola" font-size="14.00">+</text>
</g>
<!-- %75&#45;&gt;%81 -->
<g id="edge2" class="edge"><title>%81&#45;&gt;%81</title>
<path fill="none" stroke="black" d="M105.262,-168.863C108.5,-160.47 112.525,-150.033 116.166,-140.594"/>
<polygon fill="black" stroke="black" points="119.438,-141.836 119.772,-131.246 112.907,-139.316 119.438,-141.836"/>
</g>
<!-- %85 -->
<g id="node4" class="node"><title>%85</title>
<ellipse fill="none" stroke="black" cx="18" cy="-42.0986" rx="18" ry="18"/>
<text text-anchor="middle" x="18" y="-38.9479" font-family="TimesNewRomanPSMT" font-size="14.00">1</text>
</g>
<!-- %77&#45;&gt;%85 -->
<g id="edge3" class="edge"><title>%85&#45;&gt;%85</title>
<path fill="none" stroke="black" d="M61.3313,-99.2689C53.7874,-89.4897 43.5188,-76.1785 34.8713,-64.9688"/>
<polygon fill="black" stroke="black" points="37.5258,-62.6797 28.6465,-56.8997 31.9833,-66.9553 37.5258,-62.6797"/>
</g>
<!-- %89 -->
<g id="node5" class="node"><title>%89</title>
<ellipse fill="none" stroke="black" cx="72" cy="-42.0986" rx="18" ry="18"/>
<text text-anchor="middle" x="72" y="-38.9479" font-family="TimesNewRomanPSMT" font-size="14.00">1</text>
</g>
<!-- %77&#45;&gt;%89 -->
<g id="edge4" class="edge"><title>%89&#45;&gt;%89</title>
<path fill="none" stroke="black" d="M72,-95.7953C72,-88.0813 72,-78.8111 72,-70.2111"/>
<polygon fill="black" stroke="black" points="75.5001,-70.2029 72,-60.203 68.5001,-70.203 75.5001,-70.2029"/>
</g>
<!-- %93 -->
<g id="node6" class="node"><title>%93</title>
<ellipse fill="none" stroke="black" cx="126" cy="-42.0986" rx="18" ry="18"/>
<text text-anchor="middle" x="126" y="-38.9479" font-family="TimesNewRomanPSMT" font-size="14.00">1</text>
</g>
<!-- %81&#45;&gt;%93 -->
<g id="edge5" class="edge"><title>%93&#45;&gt;%93</title>
<path fill="none" stroke="black" d="M126,-95.7953C126,-88.0813 126,-78.8111 126,-70.2111"/>
<polygon fill="black" stroke="black" points="129.5,-70.2029 126,-60.203 122.5,-70.203 129.5,-70.2029"/>
</g>
<!-- %97 -->
<g id="node7" class="node"><title>%97</title>
<ellipse fill="none" stroke="black" cx="180" cy="-42.0986" rx="18" ry="18"/>
<text text-anchor="middle" x="180" y="-38.9479" font-family="TimesNewRomanPSMT" font-size="14.00">1</text>
</g>
<!-- %81&#45;&gt;%97 -->
<g id="edge6" class="edge"><title>%97&#45;&gt;%97</title>
<path fill="none" stroke="black" d="M136.669,-99.2689C144.213,-89.4897 154.481,-76.1785 163.129,-64.9688"/>
<polygon fill="black" stroke="black" points="166.017,-66.9553 169.354,-56.8997 160.474,-62.6797 166.017,-66.9553"/>
</g>
</g>
</svg>
