<?xml version="1.0" standalone="no"?>
<?xml-stylesheet href="style.css" type="text/css"?>
<svg xmlns="http://www.w3.org/2000/svg" version="1.1"
    width="512" height="512" viewBox="0 0 512 512">
<g id="g" transform="translate($r,$r)">
<circle cx="-128" r="128"/>
<circle cx="-128.619337264168" r="128.619337264168"/>
<circle cx="-130.507668250665" r="130.507668250665"/>
<circle cx="-133.75964542456" r="133.75964542456"/>
<circle cx="-138.546201637426" r="138.546201637426"/>
<circle cx="-145.137672912988" r="145.137672912988"/>
<circle cx="-153.944291055372" r="153.944291055372"/>
<circle cx="-165.586376540157" r="165.586376540157"/>
<circle cx="-181.019335983756" r="181.019335983756"/>
<circle cx="-201.76758360352" r="201.76758360352"/>
<circle cx="-230.393913122922" r="230.393913122922"/>
<circle cx="-271.533487613529" r="271.533487613529"/>
<circle cx="-334.480119008352" r="334.480119008352"/>
<circle cx="-440.946457149014" r="440.946457149014"/>
<circle cx="-656.106354621826" r="656.106354621826"/>
<circle cx="-1305.89404638443" r="1305.89404638443"/>
<line x1="0" y1="256" x2="0" y2="-256"/>
<circle cx="1305.89404638443" r="1305.89404638443"/>
<circle cx="656.106354621826" r="656.106354621826"/>
<circle cx="440.946457149014" r="440.946457149014"/>
<circle cx="334.480119008352" r="334.480119008352"/>
<circle cx="271.533487613529" r="271.533487613529"/>
<circle cx="230.393913122922" r="230.393913122922"/>
<circle cx="201.76758360352" r="201.76758360352"/>
<circle cx="181.019335983756" r="181.019335983756"/>
<circle cx="165.586376540157" r="165.586376540157"/>
<circle cx="153.944291055372" r="153.944291055372"/>
<circle cx="145.137672912988" r="145.137672912988"/>
<circle cx="138.546201637426" r="138.546201637426"/>
<circle cx="133.75964542456" r="133.75964542456"/>
<circle cx="130.507668250665" r="130.507668250665"/>
<circle cx="128.619337264168" r="128.619337264168"/>
<circle cx="128" r="128"/>
<circle class="unit" r="256"/>
</g>
</svg>
