<?xml version="1.0" encoding="UTF-8" standalone="no"?>
<?xml-stylesheet href="style.css" type="text/css"?><svg
   xmlns:dc="http://purl.org/dc/elements/1.1/"
   xmlns:cc="http://creativecommons.org/ns#"
   xmlns:rdf="http://www.w3.org/1999/02/22-rdf-syntax-ns#"
   xmlns:svg="http://www.w3.org/2000/svg"
   xmlns="http://www.w3.org/2000/svg"
   xmlns:sodipodi="http://sodipodi.sourceforge.net/DTD/sodipodi-0.dtd"
   xmlns:inkscape="http://www.inkscape.org/namespaces/inkscape"
   version="1.1"
   width="768"
   height="768"
   viewBox="0 0 768 768"
   id="svg4721"
   inkscape:version="0.48.2 r9819"
   sodipodi:docname="circ8+.svg">
  <metadata
     id="metadata4782">
    <rdf:RDF>
      <cc:Work
         rdf:about="">
        <dc:format>image/svg+xml</dc:format>
        <dc:type
           rdf:resource="http://purl.org/dc/dcmitype/StillImage" />
        <dc:title></dc:title>
      </cc:Work>
    </rdf:RDF>
  </metadata>
  <defs
     id="defs4780">
    <filter
       inkscape:collect="always"
       id="filter5690">
      <feGaussianBlur
         inkscape:collect="always"
         stdDeviation="2.2577408"
         id="feGaussianBlur5692" />
    </filter>
  </defs>
  <sodipodi:namedview
     pagecolor="#ffffff"
     bordercolor="#666666"
     borderopacity="1"
     objecttolerance="10"
     gridtolerance="10"
     guidetolerance="10"
     inkscape:pageopacity="0"
     inkscape:pageshadow="2"
     inkscape:window-width="1458"
     inkscape:window-height="959"
     id="namedview4778"
     showgrid="false"
     inkscape:zoom="0.86915208"
     inkscape:cx="315.05675"
     inkscape:cy="381.15614"
     inkscape:window-x="0"
     inkscape:window-y="0"
     inkscape:window-maximized="0"
     inkscape:current-layer="svg4721" />
  <g
     id="g5292"
     style="stroke:#114d0b;stroke-opacity:1;stroke-width:0.50000000000000000;stroke-miterlimit:4;stroke-dasharray:none">
    <g
       style="fill:none;stroke:#114d0b;stroke-opacity:1;stroke-width:0.50000000000000000;stroke-miterlimit:4;stroke-dasharray:none"
       transform="translate(384,384)"
       id="g">
      <circle
         style="fill:none;stroke:#114d0b;stroke-opacity:1;stroke-width:0.50000000000000000;stroke-miterlimit:4;stroke-dasharray:none"
         d="m 0,0 c 0,106.03867 -85.961328,192 -192,192 -106.03867,0 -192,-85.96133 -192,-192 0,-106.03867 85.96133,-192 192,-192 106.038672,0 192,85.96133 192,192 z"
         id="circle4724"
         r="192"
         cx="-192"
         class="e" />
      <circle
         style="fill:none;stroke:#114d0b;stroke-opacity:1;stroke-width:0.50000000000000000;stroke-miterlimit:4;stroke-dasharray:none"
         d="m 0,0 c 0,108.11609 -87.645411,195.76151 -195.76151,195.76151 -108.11609,0 -195.7615,-87.64542 -195.7615,-195.76151 0,-108.11609 87.64541,-195.76151 195.7615,-195.76151 C -87.645411,-195.76151 0,-108.11609 0,0 z"
         id="circle4726"
         r="195.761502375997"
         cx="-195.761502375997"
         class="e" />
      <circle
         style="fill:none;stroke:#114d0b;stroke-opacity:1;stroke-width:0.50000000000000000;stroke-miterlimit:4;stroke-dasharray:none"
         d="m 0,0 c 0,114.77543 -93.043872,207.81931 -207.81931,207.81931 -114.77543,0 -207.8193,-93.04388 -207.8193,-207.81931 0,-114.77543 93.04387,-207.81931 207.8193,-207.81931 C -93.043872,-207.81931 0,-114.77543 0,0 z"
         id="circle4728"
         r="207.81930245614"
         cx="-207.81930245614"
         class="e" />
      <circle
         style="fill:none;stroke:#114d0b;stroke-opacity:1;stroke-width:0.50000000000000000;stroke-miterlimit:4;stroke-dasharray:none"
         d="m 0,0 c 0,127.53163 -103.38481,230.91644 -230.91644,230.91644 -127.53163,0 -230.91645,-103.38481 -230.91645,-230.91644 0,-127.53163 103.38482,-230.91644 230.91645,-230.91644 C -103.38481,-230.91644 0,-127.53163 0,0 z"
         id="circle4730"
         r="230.916436583057"
         cx="-230.916436583057"
         class="e" />
      <circle
         style="fill:none;stroke:#114d0b;stroke-opacity:1;stroke-width:0.50000000000000000;stroke-miterlimit:4;stroke-dasharray:none"
         d="m 0,0 c 0,149.96132 -121.56767,271.52899 -271.52899,271.52899 -149.96132,0 -271.52899,-121.56767 -271.52899,-271.52899 0,-149.96132 121.56767,-271.52899 271.52899,-271.52899 C -121.56767,-271.52899 0,-149.96132 0,0 z"
         id="circle4732"
         r="271.529003975634"
         cx="-271.529003975634"
         class="e" />
      <circle
         style="fill:none;stroke:#114d0b;stroke-opacity:1;stroke-width:0.50000000000000000;stroke-miterlimit:4;stroke-dasharray:none"
         d="m 0,0 c 0,190.86457 -154.72631,345.59088 -345.59088,345.59088 -190.86457,0 -345.59088,-154.72631 -345.59088,-345.59088 0,-190.86457 154.72631,-345.59088 345.59088,-345.59088 C -154.72631,-345.59088 0,-190.86457 0,0 z"
         id="circle4734"
         r="345.590869684384"
         cx="-345.590869684384"
         class="e" />
      <circle
         style="fill:none;stroke:#114d0b;stroke-opacity:1;stroke-width:0.50000000000000000;stroke-miterlimit:4;stroke-dasharray:none"
         d="m 0,0 c 0,277.09241 -224.62778,501.72018 -501.72018,501.72018 -277.09241,0 -501.72022,-224.62777 -501.72022,-501.72018 0,-277.09241 224.62781,-501.72018 501.72022,-501.72018 C -224.62778,-501.72018 0,-277.09241 0,0 z"
         id="circle4736"
         r="501.720178512529"
         cx="-501.720178512529"
         class="e" />
      <circle
         style="fill:none;stroke:#114d0b;stroke-opacity:1;stroke-width:0.50000000000000000;stroke-miterlimit:4;stroke-dasharray:none"
         d="m 0,0 c 0,543.53631 -440.62324,984.15955 -984.15955,984.15955 -543.53635,0 -984.15955,-440.62324 -984.15955,-984.15955 0,-543.53631 440.6232,-984.15955 984.15955,-984.15955 C -440.62324,-984.15955 0,-543.53631 0,0 z"
         id="circle4738"
         r="984.159531932738"
         cx="-984.159531932738"
         class="e" />
      <circle
         style="fill:none;stroke:#114d0b;stroke-opacity:1;stroke-width:0.50000000000000000;stroke-miterlimit:4;stroke-dasharray:none"
         id="circle4740"
         r="0"
         class="m" />
      <line
         style="fill:none;stroke:#114d0b;stroke-opacity:1;stroke-width:0.50000000000000000;stroke-miterlimit:4;stroke-dasharray:none"
         id="line4742"
         y2="-384"
         x2="0"
         y1="384"
         x1="0"
         class="e" />
      <circle
         style="fill:none;stroke:#114d0b;stroke-opacity:1;stroke-width:0.50000000000000000;stroke-miterlimit:4;stroke-dasharray:none"
         d="M 74.91468,0 C 74.91468,41.374236 41.374236,74.91468 0,74.91468 -41.374236,74.91468 -74.91468,41.374236 -74.91468,0 c 0,-41.374236 33.540444,-74.91468 74.91468,-74.91468 41.374236,0 74.91468,33.540444 74.91468,74.91468 z"
         id="circle4744"
         r="74.9146836541933"
         class="m" />
      <circle
         style="fill:none;stroke:#114d0b;stroke-opacity:1;stroke-width:0.50000000000000000;stroke-miterlimit:4;stroke-dasharray:none"
         d="m 1968.3191,0 c 0,543.53631 -440.6232,984.15955 -984.15955,984.15955 C 440.62324,984.15955 0,543.53631 0,0 c 0,-543.53631 440.62324,-984.15955 984.15955,-984.15955 543.53635,0 984.15955,440.62324 984.15955,984.15955 z"
         id="circle4746"
         r="984.159531932738"
         cx="984.159531932738"
         class="e" />
      <circle
         style="fill:none;stroke:#114d0b;stroke-opacity:1;stroke-width:0.50000000000000000;stroke-miterlimit:4;stroke-dasharray:none"
         d="M 146.95044,0 C 146.95044,81.158487 81.158487,146.95044 0,146.95044 -81.158487,146.95044 -146.95044,81.158487 -146.95044,0 c 0,-81.158487 65.791953,-146.95044 146.95044,-146.95044 81.158487,0 146.95044,65.791953 146.95044,146.95044 z"
         id="circle4748"
         r="146.950438028194"
         class="m" />
      <circle
         style="fill:none;stroke:#114d0b;stroke-opacity:1;stroke-width:0.50000000000000000;stroke-miterlimit:4;stroke-dasharray:none"
         d="m 1003.4404,0 c 0,277.09241 -224.62781,501.72018 -501.72022,501.72018 C 224.62778,501.72018 0,277.09241 0,0 c 0,-277.09241 224.62778,-501.72018 501.72018,-501.72018 277.09241,0 501.72022,224.62777 501.72022,501.72018 z"
         id="circle4750"
         r="501.720178512529"
         cx="501.720178512529"
         class="e" />
      <circle
         style="fill:none;stroke:#114d0b;stroke-opacity:1;stroke-width:0.50000000000000000;stroke-miterlimit:4;stroke-dasharray:none"
         d="m 213.33897,0 c 0,117.82386 -95.51511,213.33897 -213.33897,213.33897 -117.82386,0 -213.33897,-95.51511 -213.33897,-213.33897 0,-117.82386 95.51511,-213.33897 213.33897,-213.33897 117.82386,0 213.33897,95.51511 213.33897,213.33897 z"
         id="circle4752"
         r="213.338969479527"
         class="m" />
      <circle
         style="fill:none;stroke:#114d0b;stroke-opacity:1;stroke-width:0.50000000000000000;stroke-miterlimit:4;stroke-dasharray:none"
         d="m 691.18176,0 c 0,190.86457 -154.72631,345.59088 -345.59088,345.59088 C 154.72631,345.59088 0,190.86457 0,0 c 0,-190.86457 154.72631,-345.59088 345.59088,-345.59088 190.86457,0 345.59088,154.72631 345.59088,345.59088 z"
         id="circle4754"
         r="345.590869684384"
         cx="345.590869684384"
         class="e" />
      <circle
         style="fill:none;stroke:#114d0b;stroke-opacity:1;stroke-width:0.50000000000000000;stroke-miterlimit:4;stroke-dasharray:none"
         d="M 271.52899,0 C 271.52899,149.96132 149.96132,271.52899 0,271.52899 -149.96132,271.52899 -271.52899,149.96132 -271.52899,0 c 0,-149.96132 121.56767,-271.52899 271.52899,-271.52899 149.96132,0 271.52899,121.56767 271.52899,271.52899 z"
         id="circle4756"
         r="271.529003975634"
         class="m" />
      <circle
         style="fill:none;stroke:#114d0b;stroke-opacity:1;stroke-width:0.50000000000000000;stroke-miterlimit:4;stroke-dasharray:none"
         d="m 543.05798,0 c 0,149.96132 -121.56767,271.52899 -271.52899,271.52899 C 121.56767,271.52899 0,149.96132 0,0 c 0,-149.96132 121.56767,-271.52899 271.52899,-271.52899 149.96132,0 271.52899,121.56767 271.52899,271.52899 z"
         id="circle4758"
         r="271.529003975634"
         cx="271.529003975634"
         class="e" />
      <circle
         style="fill:none;stroke:#114d0b;stroke-opacity:1;stroke-width:0.50000000000000000;stroke-miterlimit:4;stroke-dasharray:none"
         d="M 319.28433,0 C 319.28433,176.33587 176.33587,319.28433 0,319.28433 -176.33587,319.28433 -319.28433,176.33587 -319.28433,0 c 0,-176.33587 142.94846,-319.28433 319.28433,-319.28433 176.33587,0 319.28433,142.94846 319.28433,319.28433 z"
         id="circle4760"
         r="319.284331124177"
         class="m" />
      <circle
         style="fill:none;stroke:#114d0b;stroke-opacity:1;stroke-width:0.50000000000000000;stroke-miterlimit:4;stroke-dasharray:none"
         d="m 461.83289,0 c 0,127.53163 -103.38482,230.91644 -230.91645,230.91644 C 103.38481,230.91644 0,127.53163 0,0 c 0,-127.53163 103.38481,-230.91644 230.91644,-230.91644 127.53163,0 230.91645,103.38481 230.91645,230.91644 z"
         id="circle4762"
         r="230.916436583057"
         cx="230.916436583057"
         class="e" />
      <circle
         style="fill:none;stroke:#114d0b;stroke-opacity:1;stroke-width:0.50000000000000000;stroke-miterlimit:4;stroke-dasharray:none"
         d="M 354.76974,0 C 354.76974,195.93392 195.93392,354.76974 0,354.76974 -195.93392,354.76974 -354.76974,195.93392 -354.76974,0 c 0,-195.93392 158.83582,-354.76974 354.76974,-354.76974 195.93392,0 354.76974,158.83582 354.76974,354.76974 z"
         id="circle4764"
         r="354.769740484334"
         class="m" />
      <circle
         style="fill:none;stroke:#114d0b;stroke-opacity:1;stroke-width:0.50000000000000000;stroke-miterlimit:4;stroke-dasharray:none"
         d="m 415.63861,0 c 0,114.77543 -93.04387,207.81931 -207.8193,207.81931 C 93.043872,207.81931 0,114.77543 0,0 c 0,-114.77543 93.043872,-207.81931 207.81931,-207.81931 114.77543,0 207.8193,93.04388 207.8193,207.81931 z"
         id="circle4766"
         r="207.81930245614"
         cx="207.81930245614"
         class="e" />
      <circle
         style="fill:none;stroke:#114d0b;stroke-opacity:1;stroke-width:0.50000000000000000;stroke-miterlimit:4;stroke-dasharray:none"
         d="M 376.62155,0 C 376.62155,208.00234 208.00234,376.62155 0,376.62155 -208.00234,376.62155 -376.62155,208.00234 -376.62155,0 c 0,-208.00234 168.61921,-376.62155 376.62155,-376.62155 208.00234,0 376.62155,168.61921 376.62155,376.62155 z"
         id="circle4768"
         r="376.62154767484"
         class="m" />
      <circle
         style="fill:none;stroke:#114d0b;stroke-opacity:1;stroke-width:0.50000000000000000;stroke-miterlimit:4;stroke-dasharray:none"
         d="m 391.52301,0 c 0,108.11609 -87.64541,195.76151 -195.7615,195.76151 C 87.645411,195.76151 0,108.11609 0,0 c 0,-108.11609 87.645411,-195.76151 195.76151,-195.76151 108.11609,0 195.7615,87.64542 195.7615,195.76151 z"
         id="circle4770"
         r="195.761502375997"
         cx="195.761502375997"
         class="e" />
      <circle
         style="fill:none;stroke:#114d0b;stroke-opacity:1;stroke-width:0.50000000000000000;stroke-miterlimit:4;stroke-dasharray:none"
         d="M 384,0 C 384,212.07734 212.07734,384 0,384 -212.07734,384 -384,212.07734 -384,0 c 0,-212.07734 171.92266,-384 384,-384 212.07734,0 384,171.92266 384,384 z"
         id="circle4772"
         r="384"
         class="m" />
      <circle
         style="fill:none;stroke:#114d0b;stroke-opacity:1;stroke-width:0.50000000000000000;stroke-miterlimit:4;stroke-dasharray:none"
         d="M 384,0 C 384,106.03867 298.03867,192 192,192 85.961328,192 0,106.03867 0,0 c 0,-106.03867 85.961328,-192 192,-192 106.03867,0 192,85.96133 192,192 z"
         id="circle4774"
         r="192"
         cx="192"
         class="e" />
      <circle
         style="fill:none;stroke:#114d0b;stroke-opacity:1;stroke-width:0.50000000000000000;stroke-miterlimit:4;stroke-dasharray:none"
         d="M 384,0 C 384,212.07734 212.07734,384 0,384 -212.07734,384 -384,212.07734 -384,0 c 0,-212.07734 171.92266,-384 384,-384 212.07734,0 384,171.92266 384,384 z"
         id="circle4776"
         r="384"
         class="unit" />
    </g>
  </g>
  <g
     id="g5502"
     style="opacity:0.77586209;fill:none;stroke:#096baa;stroke-width:5.74913645;stroke-miterlimit:4;stroke-opacity:1;stroke-dasharray:none;filter:url(#filter5690)"
     transform="matrix(0.38266617,0,0,0.38266617,438.16996,269.43364)">
    <g
       id="g-9"
       transform="translate(-141.55932,299.38983)"
       style="fill:none;stroke:#096baa;stroke-width:5.74913645;stroke-miterlimit:4;stroke-opacity:1;stroke-dasharray:none">
      <circle
         d="m 0,0 c 0,106.03867 -85.961328,192 -192,192 -106.03867,0 -192,-85.96133 -192,-192 0,-106.03867 85.96133,-192 192,-192 106.038672,0 192,85.96133 192,192 z"
         sodipodi:ry="192"
         sodipodi:rx="192"
         sodipodi:cy="0"
         sodipodi:cx="-192"
         cy="0"
         class="e"
         cx="-192"
         r="192"
         id="circle5450"
         style="fill:none;stroke:#096baa;stroke-width:5.74913645;stroke-miterlimit:4;stroke-opacity:1;stroke-dasharray:none" />
      <circle
         d="m 0,0 c 0,114.77543 -93.043872,207.81931 -207.81931,207.81931 -114.77543,0 -207.8193,-93.04388 -207.8193,-207.81931 0,-114.77543 93.04387,-207.81931 207.8193,-207.81931 C -93.043872,-207.81931 0,-114.77543 0,0 z"
         sodipodi:ry="207.81931"
         sodipodi:rx="207.81931"
         sodipodi:cy="0"
         sodipodi:cx="-207.81931"
         cy="0"
         class="e"
         cx="-207.81931"
         r="207.81931"
         id="circle5452"
         style="fill:none;stroke:#096baa;stroke-width:5.74913645;stroke-miterlimit:4;stroke-opacity:1;stroke-dasharray:none" />
      <circle
         d="m 0,0 c 0,149.96132 -121.56767,271.52899 -271.52899,271.52899 -149.96132,0 -271.52899,-121.56767 -271.52899,-271.52899 0,-149.96132 121.56767,-271.52899 271.52899,-271.52899 C -121.56767,-271.52899 0,-149.96132 0,0 z"
         sodipodi:ry="271.52899"
         sodipodi:rx="271.52899"
         sodipodi:cy="0"
         sodipodi:cx="-271.52899"
         cy="0"
         class="e"
         cx="-271.52899"
         r="271.52899"
         id="circle5454"
         style="fill:none;stroke:#096baa;stroke-width:5.74913645;stroke-miterlimit:4;stroke-opacity:1;stroke-dasharray:none" />
      <circle
         d="m 0,0 c 0,277.09241 -224.62778,501.72018 -501.72018,501.72018 -277.09241,0 -501.72022,-224.62777 -501.72022,-501.72018 0,-277.09241 224.62781,-501.72018 501.72022,-501.72018 C -224.62778,-501.72018 0,-277.09241 0,0 z"
         sodipodi:ry="501.72018"
         sodipodi:rx="501.72018"
         sodipodi:cy="0"
         sodipodi:cx="-501.72018"
         cy="0"
         class="e"
         cx="-501.72018"
         r="501.72018"
         id="circle5456"
         style="fill:none;stroke:#096baa;stroke-width:5.74913645;stroke-miterlimit:4;stroke-opacity:1;stroke-dasharray:none" />
      <circle
         sodipodi:ry="0"
         sodipodi:rx="0"
         sodipodi:cy="0"
         sodipodi:cx="0"
         cy="0"
         cx="0"
         class="m"
         r="0"
         id="circle5458"
         style="fill:none;stroke:#096baa;stroke-width:5.74913645;stroke-miterlimit:4;stroke-opacity:1;stroke-dasharray:none" />
      <line
         class="e"
         x1="0"
         y1="384"
         x2="0"
         y2="-384"
         id="line5460"
         style="fill:none;stroke:#096baa;stroke-width:5.74913645;stroke-miterlimit:4;stroke-opacity:1;stroke-dasharray:none" />
      <circle
         d="M 146.95044,0 C 146.95044,81.158487 81.158487,146.95044 0,146.95044 -81.158487,146.95044 -146.95044,81.158487 -146.95044,0 c 0,-81.158487 65.791953,-146.95044 146.95044,-146.95044 81.158487,0 146.95044,65.791953 146.95044,146.95044 z"
         sodipodi:ry="146.95044"
         sodipodi:rx="146.95044"
         sodipodi:cy="0"
         sodipodi:cx="0"
         cy="0"
         cx="0"
         class="m"
         r="146.95044"
         id="circle5462"
         style="fill:none;stroke:#096baa;stroke-width:5.74913645;stroke-miterlimit:4;stroke-opacity:1;stroke-dasharray:none" />
      <circle
         d="m 1003.4404,0 c 0,277.09241 -224.62781,501.72018 -501.72022,501.72018 C 224.62778,501.72018 0,277.09241 0,0 c 0,-277.09241 224.62778,-501.72018 501.72018,-501.72018 277.09241,0 501.72022,224.62777 501.72022,501.72018 z"
         sodipodi:ry="501.72018"
         sodipodi:rx="501.72018"
         sodipodi:cy="0"
         sodipodi:cx="501.72018"
         cy="0"
         class="e"
         cx="501.72018"
         r="501.72018"
         id="circle5464"
         style="fill:none;stroke:#096baa;stroke-width:5.74913645;stroke-miterlimit:4;stroke-opacity:1;stroke-dasharray:none" />
      <circle
         d="M 271.52899,0 C 271.52899,149.96132 149.96132,271.52899 0,271.52899 -149.96132,271.52899 -271.52899,149.96132 -271.52899,0 c 0,-149.96132 121.56767,-271.52899 271.52899,-271.52899 149.96132,0 271.52899,121.56767 271.52899,271.52899 z"
         sodipodi:ry="271.52899"
         sodipodi:rx="271.52899"
         sodipodi:cy="0"
         sodipodi:cx="0"
         cy="0"
         cx="0"
         class="m"
         r="271.52899"
         id="circle5466"
         style="fill:none;stroke:#096baa;stroke-width:5.74913645;stroke-miterlimit:4;stroke-opacity:1;stroke-dasharray:none" />
      <circle
         d="m 543.05798,0 c 0,149.96132 -121.56767,271.52899 -271.52899,271.52899 C 121.56767,271.52899 0,149.96132 0,0 c 0,-149.96132 121.56767,-271.52899 271.52899,-271.52899 149.96132,0 271.52899,121.56767 271.52899,271.52899 z"
         sodipodi:ry="271.52899"
         sodipodi:rx="271.52899"
         sodipodi:cy="0"
         sodipodi:cx="271.52899"
         cy="0"
         class="e"
         cx="271.52899"
         r="271.52899"
         id="circle5468"
         style="fill:none;stroke:#096baa;stroke-width:5.74913645;stroke-miterlimit:4;stroke-opacity:1;stroke-dasharray:none" />
      <circle
         d="M 354.76974,0 C 354.76974,195.93392 195.93392,354.76974 0,354.76974 -195.93392,354.76974 -354.76974,195.93392 -354.76974,0 c 0,-195.93392 158.83582,-354.76974 354.76974,-354.76974 195.93392,0 354.76974,158.83582 354.76974,354.76974 z"
         sodipodi:ry="354.76974"
         sodipodi:rx="354.76974"
         sodipodi:cy="0"
         sodipodi:cx="0"
         cy="0"
         cx="0"
         class="m"
         r="354.76974"
         id="circle5470"
         style="fill:none;stroke:#096baa;stroke-width:5.74913645;stroke-miterlimit:4;stroke-opacity:1;stroke-dasharray:none" />
      <circle
         d="m 415.63861,0 c 0,114.77543 -93.04387,207.81931 -207.8193,207.81931 C 93.043872,207.81931 0,114.77543 0,0 c 0,-114.77543 93.043872,-207.81931 207.81931,-207.81931 114.77543,0 207.8193,93.04388 207.8193,207.81931 z"
         sodipodi:ry="207.81931"
         sodipodi:rx="207.81931"
         sodipodi:cy="0"
         sodipodi:cx="207.81931"
         cy="0"
         class="e"
         cx="207.81931"
         r="207.81931"
         id="circle5472"
         style="fill:none;stroke:#096baa;stroke-width:5.74913645;stroke-miterlimit:4;stroke-opacity:1;stroke-dasharray:none" />
      <circle
         d="M 384,0 C 384,212.07734 212.07734,384 0,384 -212.07734,384 -384,212.07734 -384,0 c 0,-212.07734 171.92266,-384 384,-384 212.07734,0 384,171.92266 384,384 z"
         sodipodi:ry="384"
         sodipodi:rx="384"
         sodipodi:cy="0"
         sodipodi:cx="0"
         cy="0"
         cx="0"
         class="m"
         r="384"
         id="circle5474"
         style="fill:none;stroke:#096baa;stroke-width:5.74913645;stroke-miterlimit:4;stroke-opacity:1;stroke-dasharray:none" />
      <circle
         d="M 384,0 C 384,106.03867 298.03867,192 192,192 85.961328,192 0,106.03867 0,0 c 0,-106.03867 85.961328,-192 192,-192 106.03867,0 192,85.96133 192,192 z"
         sodipodi:ry="192"
         sodipodi:rx="192"
         sodipodi:cy="0"
         sodipodi:cx="192"
         cy="0"
         class="e"
         cx="192"
         r="192"
         id="circle5476"
         style="fill:none;stroke:#096baa;stroke-width:5.74913645;stroke-miterlimit:4;stroke-opacity:1;stroke-dasharray:none" />
      <circle
         d="M 384,0 C 384,212.07734 212.07734,384 0,384 -212.07734,384 -384,212.07734 -384,0 c 0,-212.07734 171.92266,-384 384,-384 212.07734,0 384,171.92266 384,384 z"
         sodipodi:ry="384"
         sodipodi:rx="384"
         sodipodi:cy="0"
         sodipodi:cx="0"
         cy="0"
         cx="0"
         class="unit"
         r="384"
         id="circle5478"
         style="fill:none;stroke:#096baa;stroke-width:5.74913645;stroke-miterlimit:4;stroke-opacity:1;stroke-dasharray:none" />
    </g>
  </g>
  <g
     id="g5622"
     style="opacity:0.79741377999999985;fill:none;stroke:#ff1a1a;stroke-width:9.23071501;stroke-miterlimit:4;stroke-opacity:1;stroke-dasharray:none"
     transform="matrix(0.27126826,0,0,0.27126826,312.21544,320.79563)">
    <g
       id="g-1"
       transform="translate(264.62572,232.99582)"
       style="fill:none;stroke:#ff1a1a;stroke-width:9.23071501;stroke-miterlimit:4;stroke-opacity:1;stroke-dasharray:none">
      <circle
         d="m 0,0 c 0,106.03867 -85.961328,192 -192,192 -106.03867,0 -192,-85.96133 -192,-192 0,-106.03867 85.96133,-192 192,-192 106.038672,0 192,85.96133 192,192 z"
         sodipodi:ry="192"
         sodipodi:rx="192"
         sodipodi:cy="0"
         sodipodi:cx="-192"
         cy="0"
         class="e"
         cx="-192"
         r="192"
         id="circle5588"
         style="fill:none;stroke:#ff1a1a;stroke-width:9.23071501;stroke-miterlimit:4;stroke-opacity:1;stroke-dasharray:none" />
      <circle
         d="m 0,0 c 0,149.96132 -121.56767,271.52899 -271.52899,271.52899 -149.96132,0 -271.52899,-121.56767 -271.52899,-271.52899 0,-149.96132 121.56767,-271.52899 271.52899,-271.52899 C -121.56767,-271.52899 0,-149.96132 0,0 z"
         sodipodi:ry="271.52899"
         sodipodi:rx="271.52899"
         sodipodi:cy="0"
         sodipodi:cx="-271.52899"
         cy="0"
         class="e"
         cx="-271.52899"
         r="271.52899"
         id="circle5590"
         style="fill:none;stroke:#ff1a1a;stroke-width:9.23071501;stroke-miterlimit:4;stroke-opacity:1;stroke-dasharray:none" />
      <circle
         sodipodi:ry="0"
         sodipodi:rx="0"
         sodipodi:cy="0"
         sodipodi:cx="0"
         cy="0"
         cx="0"
         class="m"
         r="0"
         id="circle5592"
         style="fill:none;stroke:#ff1a1a;stroke-width:9.23071501;stroke-miterlimit:4;stroke-opacity:1;stroke-dasharray:none" />
      <line
         class="e"
         x1="0"
         y1="384"
         x2="0"
         y2="-384"
         id="line5594"
         style="fill:none;stroke:#ff1a1a;stroke-width:9.23071501;stroke-miterlimit:4;stroke-opacity:1;stroke-dasharray:none" />
      <circle
         d="M 271.52899,0 C 271.52899,149.96132 149.96132,271.52899 0,271.52899 -149.96132,271.52899 -271.52899,149.96132 -271.52899,0 c 0,-149.96132 121.56767,-271.52899 271.52899,-271.52899 149.96132,0 271.52899,121.56767 271.52899,271.52899 z"
         sodipodi:ry="271.52899"
         sodipodi:rx="271.52899"
         sodipodi:cy="0"
         sodipodi:cx="0"
         cy="0"
         cx="0"
         class="m"
         r="271.52899"
         id="circle5596"
         style="fill:none;stroke:#ff1a1a;stroke-width:9.23071501;stroke-miterlimit:4;stroke-opacity:1;stroke-dasharray:none" />
      <circle
         d="m 543.05798,0 c 0,149.96132 -121.56767,271.52899 -271.52899,271.52899 C 121.56767,271.52899 0,149.96132 0,0 c 0,-149.96132 121.56767,-271.52899 271.52899,-271.52899 149.96132,0 271.52899,121.56767 271.52899,271.52899 z"
         sodipodi:ry="271.52899"
         sodipodi:rx="271.52899"
         sodipodi:cy="0"
         sodipodi:cx="271.52899"
         cy="0"
         class="e"
         cx="271.52899"
         r="271.52899"
         id="circle5598"
         style="fill:none;stroke:#ff1a1a;stroke-width:9.23071501;stroke-miterlimit:4;stroke-opacity:1;stroke-dasharray:none" />
      <circle
         d="M 384,0 C 384,212.07734 212.07734,384 0,384 -212.07734,384 -384,212.07734 -384,0 c 0,-212.07734 171.92266,-384 384,-384 212.07734,0 384,171.92266 384,384 z"
         sodipodi:ry="384"
         sodipodi:rx="384"
         sodipodi:cy="0"
         sodipodi:cx="0"
         cy="0"
         cx="0"
         class="m"
         r="384"
         id="circle5600"
         style="fill:none;stroke:#ff1a1a;stroke-width:9.23071501;stroke-miterlimit:4;stroke-opacity:1;stroke-dasharray:none" />
      <circle
         d="M 384,0 C 384,106.03867 298.03867,192 192,192 85.961328,192 0,106.03867 0,0 c 0,-106.03867 85.961328,-192 192,-192 106.03867,0 192,85.96133 192,192 z"
         sodipodi:ry="192"
         sodipodi:rx="192"
         sodipodi:cy="0"
         sodipodi:cx="192"
         cy="0"
         class="e"
         cx="192"
         r="192"
         id="circle5602"
         style="fill:none;stroke:#ff1a1a;stroke-width:9.23071501;stroke-miterlimit:4;stroke-opacity:1;stroke-dasharray:none" />
      <circle
         d="M 384,0 C 384,212.07734 212.07734,384 0,384 -212.07734,384 -384,212.07734 -384,0 c 0,-212.07734 171.92266,-384 384,-384 212.07734,0 384,171.92266 384,384 z"
         sodipodi:ry="384"
         sodipodi:rx="384"
         sodipodi:cy="0"
         sodipodi:cx="0"
         cy="0"
         cx="0"
         class="unit"
         r="384"
         id="circle5604"
         style="fill:none;stroke:#ff1a1a;stroke-width:9.23071501;stroke-miterlimit:4;stroke-opacity:1;stroke-dasharray:none" />
    </g>
  </g>
</svg>
