<?xml version="1.0" standalone="no"?>
<?xml-stylesheet href="style.css" type="text/css"?>
<svg xmlns="http://www.w3.org/2000/svg" xmlns:xlink="http://www.w3.org/1999/xlink" version="1.1"
    width="768" height="768" viewBox="0 0 768 768">
<defs>
<g id="g64">
<circle class="e" cx="-192" r="192"/>
<circle class="e" cx="-192.05784423193" r="192.05784423193"/>
<circle class="e" cx="-192.231551322315" r="192.231551322315"/>
<circle class="e" cx="-192.521645739421" r="192.521645739421"/>
<circle class="e" cx="-192.929005896252" r="192.929005896252"/>
<circle class="e" cx="-193.454870661521" r="193.454870661521"/>
<circle class="e" cx="-194.100848600657" r="194.100848600657"/>
<circle class="e" cx="-194.868930075861" r="194.868930075861"/>
<circle class="e" cx="-195.761502375997" r="195.761502375997"/>
<circle class="e" cx="-196.781368092758" r="196.781368092758"/>
<circle class="e" cx="-197.931767010288" r="197.931767010288"/>
<circle class="e" cx="-199.216401832448" r="199.216401832448"/>
<circle class="e" cx="-200.639468136841" r="200.639468136841"/>
<circle class="e" cx="-202.20568901924" r="202.20568901924"/>
<circle class="e" cx="-203.920354978477" r="203.920354978477"/>
<circle class="e" cx="-205.789369692669" r="205.789369692669"/>
<circle class="e" cx="-207.81930245614" r="207.81930245614"/>
<circle class="e" cx="-210.017448186435" r="210.017448186435"/>
<circle class="e" cx="-212.391896077227" r="212.391896077227"/>
<circle class="e" cx="-214.951608171679" r="214.951608171679"/>
<circle class="e" cx="-217.706509369481" r="217.706509369481"/>
<circle class="e" cx="-220.667590668541" r="220.667590668541"/>
<circle class="e" cx="-223.847027791155" r="223.847027791155"/>
<circle class="e" cx="-227.258317769248" r="227.258317769248"/>
<circle class="e" cx="-230.916436583057" r="230.916436583057"/>
<circle class="e" cx="-234.838021586884" r="234.838021586884"/>
<circle class="e" cx="-239.041583245695" r="239.041583245695"/>
<circle class="e" cx="-243.547751688347" r="243.547751688347"/>
<circle class="e" cx="-248.379564810236" r="248.379564810236"/>
<circle class="e" cx="-253.562806200463" r="253.562806200463"/>
<circle class="e" cx="-259.126403118722" r="259.126403118722"/>
<circle class="e" cx="-265.102897228882" r="265.102897228882"/>
<circle class="e" cx="-271.529003975634" r="271.529003975634"/>
<circle class="e" cx="-278.446280592844" r="278.446280592844"/>
<circle class="e" cx="-285.901928064883" r="285.901928064883"/>
<circle class="e" cx="-293.949759349666" r="293.949759349666"/>
<circle class="e" cx="-302.65137540528" r="302.65137540528"/>
<circle class="e" cx="-312.077602872764" r="312.077602872764"/>
<circle class="e" cx="-322.310263839562" r="322.310263839562"/>
<circle class="e" cx="-333.444370645766" r="333.444370645766"/>
<circle class="e" cx="-345.590869684384" r="345.590869684384"/>
<circle class="e" cx="-358.880101261981" r="358.880101261981"/>
<circle class="e" cx="-373.466203338993" r="373.466203338993"/>
<circle class="e" cx="-389.532773758869" r="389.532773758869"/>
<circle class="e" cx="-407.300231420293" r="407.300231420293"/>
<circle class="e" cx="-427.035502302612" r="427.035502302612"/>
<circle class="e" cx="-449.064934438228" r="449.064934438228"/>
<circle class="e" cx="-473.791771383003" r="473.791771383003"/>
<circle class="e" cx="-501.720178512529" r="501.720178512529"/>
<circle class="e" cx="-533.488880115006" r="533.488880115006"/>
<circle class="e" cx="-569.91921266464" r="569.91921266464"/>
<circle class="e" cx="-612.085356820083" r="612.085356820083"/>
<circle class="e" cx="-661.41968572352" r="661.41968572352"/>
<circle class="e" cx="-719.875576323229" r="719.875576323229"/>
<circle class="e" cx="-790.18790782211" r="790.18790782211"/>
<circle class="e" cx="-876.307226113982" r="876.307226113982"/>
<circle class="e" cx="-984.159531932738" r="984.159531932738"/>
<circle class="e" cx="-1123.05731641276" r="1123.05731641276"/>
<circle class="e" cx="-1308.52163269199" r="1308.52163269199"/>
<circle class="e" cx="-1568.49065400163" r="1568.49065400163"/>
<circle class="e" cx="-1958.84106957664" r="1958.84106957664"/>
<circle class="e" cx="-2609.95227328268" r="2609.95227328268"/>
<circle class="e" cx="-3912.96311944245" r="3912.96311944245"/>
<circle class="e" cx="-7823.56921621687" r="7823.56921621687"/>
<circle class="m" r="0"/>
<circle class="m" r="9.42383175279832"/>
<circle class="e" cx="7823.56921621687" r="7823.56921621687"/>
<circle class="m" r="18.8419869417285"/>
<circle class="e" cx="3912.96311944245" r="3912.96311944245"/>
<circle class="m" r="28.2487924222723"/>
<circle class="e" cx="2609.95227328268" r="2609.95227328268"/>
<circle class="m" r="37.6385818865513"/>
<circle class="e" cx="1958.84106957664" r="1958.84106957664"/>
<circle class="m" r="47.005699276499"/>
<circle class="e" cx="1568.49065400163" r="1568.49065400163"/>
<circle class="m" r="56.3445021908589"/>
<circle class="e" cx="1308.52163269199" r="1308.52163269199"/>
<circle class="m" r="65.6493652839557"/>
<circle class="e" cx="1123.05731641276" r="1123.05731641276"/>
<circle class="m" r="74.9146836541933"/>
<circle class="e" cx="984.159531932738" r="984.159531932738"/>
<circle class="m" r="84.134876220238"/>
<circle class="e" cx="876.307226113982" r="876.307226113982"/>
<circle class="m" r="93.3043890828533"/>
<circle class="e" cx="790.18790782211" r="790.18790782211"/>
<circle class="m" r="102.417698870361"/>
<circle class="e" cx="719.875576323229" r="719.875576323229"/>
<circle class="m" r="111.469316065714"/>
<circle class="e" cx="661.41968572352" r="661.41968572352"/>
<circle class="m" r="120.453788313174"/>
<circle class="e" cx="612.085356820083" r="612.085356820083"/>
<circle class="m" r="129.365703702613"/>
<circle class="e" cx="569.91921266464" r="569.91921266464"/>
<circle class="m" r="138.199694029435"/>
<circle class="e" cx="533.488880115006" r="533.488880115006"/>
<circle class="m" r="146.950438028194"/>
<circle class="e" cx="501.720178512529" r="501.720178512529"/>
<circle class="m" r="155.612664577916"/>
<circle class="e" cx="473.791771383003" r="473.791771383003"/>
<circle class="m" r="164.181155877228"/>
<circle class="e" cx="449.064934438228" r="449.064934438228"/>
<circle class="m" r="172.650750587369"/>
<circle class="e" cx="427.035502302612" r="427.035502302612"/>
<circle class="m" r="181.016346941183"/>
<circle class="e" cx="407.300231420293" r="407.300231420293"/>
<circle class="m" r="189.272905816237"/>
<circle class="e" cx="389.532773758869" r="389.532773758869"/>
<circle class="m" r="197.415453770197"/>
<circle class="e" cx="373.466203338993" r="373.466203338993"/>
<circle class="m" r="205.439086036645"/>
<circle class="e" cx="358.880101261981" r="358.880101261981"/>
<circle class="m" r="213.338969479527"/>
<circle class="e" cx="345.590869684384" r="345.590869684384"/>
<circle class="m" r="221.110345504453"/>
<circle class="e" cx="333.444370645766" r="333.444370645766"/>
<circle class="m" r="228.748532925094"/>
<circle class="e" cx="322.310263839562" r="322.310263839562"/>
<circle class="m" r="236.248930782961"/>
<circle class="e" cx="312.077602872764" r="312.077602872764"/>
<circle class="m" r="243.60702111884"/>
<circle class="e" cx="302.65137540528" r="302.65137540528"/>
<circle class="m" r="250.81837169425"/>
<circle class="e" cx="293.949759349666" r="293.949759349666"/>
<circle class="m" r="257.878638661255"/>
<circle class="e" cx="285.901928064883" r="285.901928064883"/>
<circle class="m" r="264.783569179034"/>
<circle class="e" cx="278.446280592844" r="278.446280592844"/>
<circle class="m" r="271.529003975634"/>
<circle class="e" cx="271.529003975634" r="271.529003975634"/>
<circle class="m" r="278.110879853363"/>
<circle class="e" cx="265.102897228882" r="265.102897228882"/>
<circle class="m" r="284.525232136304"/>
<circle class="e" cx="259.126403118722" r="259.126403118722"/>
<circle class="m" r="290.76819705849"/>
<circle class="e" cx="253.562806200463" r="253.562806200463"/>
<circle class="m" r="296.836014091291"/>
<circle class="e" cx="248.379564810236" r="248.379564810236"/>
<circle class="m" r="302.725028208617"/>
<circle class="e" cx="243.547751688347" r="243.547751688347"/>
<circle class="m" r="308.431692088568"/>
<circle class="e" cx="239.041583245695" r="239.041583245695"/>
<circle class="m" r="313.952568250208"/>
<circle class="e" cx="234.838021586884" r="234.838021586884"/>
<circle class="m" r="319.284331124177"/>
<circle class="e" cx="230.916436583057" r="230.916436583057"/>
<circle class="m" r="324.423769055887"/>
<circle class="e" cx="227.258317769248" r="227.258317769248"/>
<circle class="m" r="329.367786240104"/>
<circle class="e" cx="223.847027791155" r="223.847027791155"/>
<circle class="m" r="334.113404585745"/>
<circle class="e" cx="220.667590668541" r="220.667590668541"/>
<circle class="m" r="338.657765509768"/>
<circle class="e" cx="217.706509369481" r="217.706509369481"/>
<circle class="m" r="342.998131659078"/>
<circle class="e" cx="214.951608171679" r="214.951608171679"/>
<circle class="m" r="347.131888559402"/>
<circle class="e" cx="212.391896077227" r="212.391896077227"/>
<circle class="m" r="351.056546190156"/>
<circle class="e" cx="210.017448186435" r="210.017448186435"/>
<circle class="m" r="354.769740484334"/>
<circle class="e" cx="207.81930245614" r="207.81930245614"/>
<circle class="m" r="358.26923475254"/>
<circle class="e" cx="205.789369692669" r="205.789369692669"/>
<circle class="m" r="361.55292103028"/>
<circle class="e" cx="203.920354978477" r="203.920354978477"/>
<circle class="m" r="364.618821347726"/>
<circle class="e" cx="202.20568901924" r="202.20568901924"/>
<circle class="m" r="367.465088921168"/>
<circle class="e" cx="200.639468136841" r="200.639468136841"/>
<circle class="m" r="370.090009265449"/>
<circle class="e" cx="199.216401832448" r="199.216401832448"/>
<circle class="m" r="372.492001226705"/>
<circle class="e" cx="197.931767010288" r="197.931767010288"/>
<circle class="m" r="374.669617934795"/>
<circle class="e" cx="196.781368092758" r="196.781368092758"/>
<circle class="m" r="376.62154767484"/>
<circle class="e" cx="195.761502375997" r="195.761502375997"/>
<circle class="m" r="378.346614677353"/>
<circle class="e" cx="194.868930075861" r="194.868930075861"/>
<circle class="m" r="379.843779826476"/>
<circle class="e" cx="194.100848600657" r="194.100848600657"/>
<circle class="m" r="381.112141285905"/>
<circle class="e" cx="193.454870661521" r="193.454870661521"/>
<circle class="m" r="382.150935042124"/>
<circle class="e" cx="192.929005896252" r="192.929005896252"/>
<circle class="m" r="382.959535364617"/>
<circle class="e" cx="192.521645739421" r="192.521645739421"/>
<circle class="m" r="383.537455182786"/>
<circle class="e" cx="192.231551322315" r="192.231551322315"/>
<circle class="m" r="383.884346379342"/>
<circle class="e" cx="192.05784423193" r="192.05784423193"/>
<circle class="m" r="384"/>
<circle class="e" cx="192" r="192"/>
<line class="e" x1="0" y1="15647.1384324337" x2="0" y2="-15647.1384324337"/>
<circle class="shell" r="15647.1384324337"/>
<circle class="unit" r="384"/>
<circle class="unit" cx="192"  r="192"/>
<circle class="unit" cx="-192" r="192"/>
</g>
</defs>
<g id="g" transform="translate(384,384)">
    <use xlink:href="#g64" transform="scale(0.0245412285229123)"/>
    <use xlink:href="#g64"/>
</g>
</svg>
