<?xml version="1.0" standalone="no"?>
<?xml-stylesheet href="style.css" type="text/css"?>
<svg xmlns="http://www.w3.org/2000/svg" xmlns:xlink="http://www.w3.org/1999/xlink" version="1.1"
    width="768" height="768" viewBox="0 0 768 768">
<defs>
<g id="g47">
<circle class="e" cx="-192" r="192"/>
<circle class="e" cx="-192.107279672651" r="192.107279672651"/>
<circle class="e" cx="-192.429718918858" r="192.429718918858"/>
<circle class="e" cx="-192.969126636177" r="192.969126636177"/>
<circle class="e" cx="-193.728545239658" r="193.728545239658"/>
<circle class="e" cx="-194.712292783493" r="194.712292783493"/>
<circle class="e" cx="-195.926023448877" r="195.926023448877"/>
<circle class="e" cx="-197.37680799148" r="197.37680799148"/>
<circle class="e" cx="-199.073236310715" r="199.073236310715"/>
<circle class="e" cx="-201.025544966621" r="201.025544966621"/>
<circle class="e" cx="-203.245773261404" r="203.245773261404"/>
<circle class="e" cx="-205.74795246302" r="205.74795246302"/>
<circle class="e" cx="-208.548333930855" r="208.548333930855"/>
<circle class="e" cx="-211.665663378292" r="211.665663378292"/>
<circle class="e" cx="-215.121510365684" r="215.121510365684"/>
<circle class="e" cx="-218.940664483128" r="218.940664483128"/>
<circle class="e" cx="-223.15161272147" r="223.15161272147"/>
<circle class="e" cx="-227.787116468955" r="227.787116468955"/>
<circle class="e" cx="-232.884911721832" r="232.884911721832"/>
<circle class="e" cx="-238.488562894759" r="238.488562894759"/>
<circle class="e" cx="-244.648509672094" r="244.648509672094"/>
<circle class="e" cx="-251.423358523791" r="251.423358523791"/>
<circle class="e" cx="-258.881487071699" r="258.881487071699"/>
<circle class="e" cx="-267.103052259204" r="267.103052259204"/>
<circle class="e" cx="-276.182524948126" r="276.182524948126"/>
<circle class="e" cx="-286.231918189536" r="286.231918189536"/>
<circle class="e" cx="-297.384940157764" r="297.384940157764"/>
<circle class="e" cx="-309.802395159955" r="309.802395159955"/>
<circle class="e" cx="-323.679292332549" r="323.679292332549"/>
<circle class="e" cx="-339.25432593147" r="339.25432593147"/>
<circle class="e" cx="-356.822703571743" r="356.822703571743"/>
<circle class="e" cx="-376.753786971095" r="376.753786971095"/>
<circle class="e" cx="-399.51579086771" r="399.51579086771"/>
<circle class="e" cx="-425.711069041453" r="425.711069041453"/>
<circle class="e" cx="-456.127688035004" r="456.127688035004"/>
<circle class="e" cx="-491.816789586729" r="491.816789586729"/>
<circle class="e" cx="-534.212152631442" r="534.212152631442"/>
<circle class="e" cx="-585.321494427424" r="585.321494427424"/>
<circle class="e" cx="-648.045307770789" r="648.045307770789"/>
<circle class="e" cx="-726.734828237249" r="726.734828237249"/>
<circle class="e" cx="-828.228261341499" r="828.228261341499"/>
<circle class="e" cx="-963.923239378062" r="963.923239378062"/>
<circle class="e" cx="-1154.33622935175" r="1154.33622935175"/>
<circle class="e" cx="-1440.50105624794" r="1440.50105624794"/>
<circle class="e" cx="-1918.16447725883" r="1918.16447725883"/>
<circle class="e" cx="-2874.56848509172" r="2874.56848509172"/>
<circle class="e" cx="-5745.92644357955" r="5745.92644357955"/>
<circle class="m" r="0"/>
<circle class="m" r="12.831351170947"/>
<circle class="e" cx="5745.92644357955" r="5745.92644357955"/>
<circle class="m" r="25.6483713581267"/>
<circle class="e" cx="2874.56848509172" r="2874.56848509172"/>
<circle class="m" r="38.4367455836538"/>
<circle class="e" cx="1918.16447725883" r="1918.16447725883"/>
<circle class="m" r="51.1821908635311"/>
<circle class="e" cx="1440.50105624794" r="1440.50105624794"/>
<circle class="m" r="63.8704721599219"/>
<circle class="e" cx="1154.33622935175" r="1154.33622935175"/>
<circle class="m" r="76.4874182798731"/>
<circle class="e" cx="963.923239378062" r="963.923239378062"/>
<circle class="m" r="89.0189377027309"/>
<circle class="e" cx="828.228261341499" r="828.228261341499"/>
<circle class="m" r="101.451034318574"/>
<circle class="e" cx="726.734828237249" r="726.734828237249"/>
<circle class="m" r="113.769823060083"/>
<circle class="e" cx="648.045307770789" r="648.045307770789"/>
<circle class="m" r="125.961545410395"/>
<circle class="e" cx="585.321494427424" r="585.321494427424"/>
<circle class="m" r="138.012584769605"/>
<circle class="e" cx="534.212152631442" r="534.212152631442"/>
<circle class="m" r="149.909481662782"/>
<circle class="e" cx="491.816789586729" r="491.816789586729"/>
<circle class="m" r="161.638948772481"/>
<circle class="e" cx="456.127688035004" r="456.127688035004"/>
<circle class="m" r="173.187885778983"/>
<circle class="e" cx="425.711069041453" r="425.711069041453"/>
<circle class="m" r="184.543393991687"/>
<circle class="e" cx="399.51579086771" r="399.51579086771"/>
<circle class="m" r="195.692790755296"/>
<circle class="e" cx="376.753786971095" r="376.753786971095"/>
<circle class="m" r="206.623623614735"/>
<circle class="e" cx="356.822703571743" r="356.822703571743"/>
<circle class="m" r="217.323684222949"/>
<circle class="e" cx="339.25432593147" r="339.25432593147"/>
<circle class="m" r="227.781021976072"/>
<circle class="e" cx="323.679292332549" r="323.679292332549"/>
<circle class="m" r="237.983957360734"/>
<circle class="e" cx="309.802395159955" r="309.802395159955"/>
<circle class="m" r="247.92109499858"/>
<circle class="e" cx="297.384940157764" r="297.384940157764"/>
<circle class="m" r="257.581336373462"/>
<circle class="e" cx="286.231918189536" r="286.231918189536"/>
<circle class="m" r="266.953892227063"/>
<circle class="e" cx="276.182524948126" r="276.182524948126"/>
<circle class="m" r="276.028294609125"/>
<circle class="e" cx="267.103052259204" r="267.103052259204"/>
<circle class="m" r="284.794408568816"/>
<circle class="e" cx="258.881487071699" r="258.881487071699"/>
<circle class="m" r="293.242443474176"/>
<circle class="e" cx="251.423358523791" r="251.423358523791"/>
<circle class="m" r="301.362963947006"/>
<circle class="e" cx="244.648509672094" r="244.648509672094"/>
<circle class="m" r="309.146900400984"/>
<circle class="e" cx="238.488562894759" r="238.488562894759"/>
<circle class="m" r="316.585559171236"/>
<circle class="e" cx="232.884911721832" r="232.884911721832"/>
<circle class="m" r="323.67063222405"/>
<circle class="e" cx="227.787116468955" r="227.787116468955"/>
<circle class="m" r="330.394206435894"/>
<circle class="e" cx="223.15161272147" r="223.15161272147"/>
<circle class="m" r="336.748772431362"/>
<circle class="e" cx="218.940664483128" r="218.940664483128"/>
<circle class="m" r="342.727232970194"/>
<circle class="e" cx="215.121510365684" r="215.121510365684"/>
<circle class="m" r="348.322910873987"/>
<circle class="e" cx="211.665663378292" r="211.665663378292"/>
<circle class="m" r="353.529556483749"/>
<circle class="e" cx="208.548333930855" r="208.548333930855"/>
<circle class="m" r="358.341354639975"/>
<circle class="e" cx="205.74795246302" r="205.74795246302"/>
<circle class="m" r="362.752931177441"/>
<circle class="e" cx="203.245773261404" r="203.245773261404"/>
<circle class="m" r="366.759358927454"/>
<circle class="e" cx="201.025544966621" r="201.025544966621"/>
<circle class="m" r="370.356163220881"/>
<circle class="e" cx="199.073236310715" r="199.073236310715"/>
<circle class="m" r="373.539326885774"/>
<circle class="e" cx="197.37680799148" r="197.37680799148"/>
<circle class="m" r="376.305294734049"/>
<circle class="e" cx="195.926023448877" r="195.926023448877"/>
<circle class="m" r="378.650977532171"/>
<circle class="e" cx="194.712292783493" r="194.712292783493"/>
<circle class="m" r="380.573755451436"/>
<circle class="e" cx="193.728545239658" r="193.728545239658"/>
<circle class="m" r="382.071480993986"/>
<circle class="e" cx="192.969126636177" r="192.969126636177"/>
<circle class="m" r="383.142481391291"/>
<circle class="e" cx="192.429718918858" r="192.429718918858"/>
<circle class="m" r="383.785560472418"/>
<circle class="e" cx="192.107279672651" r="192.107279672651"/>
<circle class="m" r="384"/>
<circle class="e" cx="192" r="192"/>
<line class="e" x1="0" y1="11491.8528871591" x2="0" y2="-11491.8528871591"/>
<circle class="shell" r="11491.8528871591"/>
<circle class="unit" r="384"/>
<circle class="unit" cx="192"  r="192"/>
<circle class="unit" cx="-192" r="192"/>
</g>
</defs>
<g id="g" transform="translate(384,384)">
    <use xlink:href="#g47" transform="scale(0.0334149770076746)"/>
    <use xlink:href="#g47"/>
</g>
</svg>
