<?xml version="1.0" standalone="no"?>
<?xml-stylesheet href="style.css" type="text/css"?>
<svg xmlns="http://www.w3.org/2000/svg" version="1.1"
    width="768" height="768" viewBox="0 0 768 768">
<g id="g" transform="translate(384,384)">
<circle class="e" cx="-192" r="192"/>
<circle class="e" cx="-192.023689486034" r="192.023689486034"/>
<circle class="e" cx="-192.094787181532" r="192.094787181532"/>
<circle class="e" cx="-192.213380886767" r="192.213380886767"/>
<circle class="e" cx="-192.379617229659" r="192.379617229659"/>
<circle class="e" cx="-192.593702108703" r="192.593702108703"/>
<circle class="e" cx="-192.855901316548" r="192.855901316548"/>
<circle class="e" cx="-193.166541347768" r="193.166541347768"/>
<circle class="e" cx="-193.526010395385" r="193.526010395385"/>
<circle class="e" cx="-193.934759541847" r="193.934759541847"/>
<circle class="e" cx="-194.393304151297" r="194.393304151297"/>
<circle class="e" cx="-194.9022254712" r="194.9022254712"/>
<circle class="e" cx="-195.46217245268" r="195.46217245268"/>
<circle class="e" cx="-196.073863800301" r="196.073863800301"/>
<circle class="e" cx="-196.738090263533" r="196.738090263533"/>
<circle class="e" cx="-197.45571718372" r="197.45571718372"/>
<circle class="e" cx="-198.227687312129" r="198.227687312129"/>
<circle class="e" cx="-199.055023916547" r="199.055023916547"/>
<circle class="e" cx="-199.938834195971" r="199.938834195971"/>
<circle class="e" cx="-200.880313025212" r="200.880313025212"/>
<circle class="e" cx="-201.880747053747" r="201.880747053747"/>
<circle class="e" cx="-202.941519185901" r="202.941519185901"/>
<circle class="e" cx="-204.064113472534" r="204.064113472534"/>
<circle class="e" cx="-205.250120447794" r="205.250120447794"/>
<circle class="e" cx="-206.501242948272" r="206.501242948272"/>
<circle class="e" cx="-207.81930245614" r="207.81930245614"/>
<circle class="e" cx="-209.206246012551" r="209.206246012551"/>
<circle class="e" cx="-210.664153752871" r="210.664153752871"/>
<circle class="e" cx="-212.195247121229" r="212.195247121229"/>
<circle class="e" cx="-213.801897828559" r="213.801897828559"/>
<circle class="e" cx="-215.486637625797" r="215.486637625797"/>
<circle class="e" cx="-217.252168972368" r="217.252168972368"/>
<circle class="e" cx="-219.10137668971" r="219.10137668971"/>
<circle class="e" cx="-221.037340700424" r="221.037340700424"/>
<circle class="e" cx="-223.063349965971" r="223.063349965971"/>
<circle class="e" cx="-225.18291774989" r="225.18291774989"/>
<circle class="e" cx="-227.399798349488" r="227.399798349488"/>
<circle class="e" cx="-229.718005457243" r="229.718005457243"/>
<circle class="e" cx="-232.141832334056" r="232.141832334056"/>
<circle class="e" cx="-234.675874000525" r="234.675874000525"/>
<circle class="e" cx="-237.32505167996" r="237.32505167996"/>
<circle class="e" cx="-240.094639758679" r="240.094639758679"/>
<circle class="e" cx="-242.990295565841" r="242.990295565841"/>
<circle class="e" cx="-246.01809231757" r="246.01809231757"/>
<circle class="e" cx="-249.184555619468" r="249.184555619468"/>
<circle class="e" cx="-252.496703979031" r="252.496703979031"/>
<circle class="e" cx="-255.962093846433" r="255.962093846433"/>
<circle class="e" cx="-259.588869780485" r="259.588869780485"/>
<circle class="e" cx="-263.385820428464" r="263.385820428464"/>
<circle class="e" cx="-267.36244111661" r="267.36244111661"/>
<circle class="e" cx="-271.529003975634" r="271.529003975634"/>
<circle class="e" cx="-275.896636676562" r="275.896636676562"/>
<circle class="e" cx="-280.477411031523" r="280.477411031523"/>
<circle class="e" cx="-285.28444292769" r="285.28444292769"/>
<circle class="e" cx="-290.332005317995" r="290.332005317995"/>
<circle class="e" cx="-295.635656298694" r="295.635656298694"/>
<circle class="e" cx="-301.21238467303" r="301.21238467303"/>
<circle class="e" cx="-307.080775846668" r="307.080775846668"/>
<circle class="e" cx="-313.26120144264" r="313.26120144264"/>
<circle class="e" cx="-319.776036684624" r="319.776036684624"/>
<circle class="e" cx="-326.649910407183" r="326.649910407183"/>
<circle class="e" cx="-333.909993548283" r="333.909993548283"/>
<circle class="e" cx="-341.586333212134" r="341.586333212134"/>
<circle class="e" cx="-349.712240923024" r="349.712240923024"/>
<circle class="e" cx="-358.324745606509" r="358.324745606509"/>
<circle class="e" cx="-367.465124242741" r="367.465124242741"/>
<circle class="e" cx="-377.179526182512" r="377.179526182512"/>
<circle class="e" cx="-387.519710993195" r="387.519710993195"/>
<circle class="e" cx="-398.543924668568" r="398.543924668568"/>
<circle class="e" cx="-410.317945445301" r="410.317945445301"/>
<circle class="e" cx="-422.916338800371" r="422.916338800371"/>
<circle class="e" cx="-436.423972120696" r="436.423972120696"/>
<circle class="e" cx="-450.937853962435" r="450.937853962435"/>
<circle class="e" cx="-466.569382052217" r="466.569382052217"/>
<circle class="e" cx="-483.447110075587" r="483.447110075587"/>
<circle class="e" cx="-501.720178512529" r="501.720178512529"/>
<circle class="e" cx="-521.562603199847" r="521.562603199847"/>
<circle class="e" cx="-543.178682667168" r="543.178682667168"/>
<circle class="e" cx="-566.809880219393" r="566.809880219393"/>
<circle class="e" cx="-592.743672347216" r="592.743672347216"/>
<circle class="e" cx="-621.32505167996" r="621.32505167996"/>
<circle class="e" cx="-652.971662469466" r="652.971662469466"/>
<circle class="e" cx="-688.193981255455" r="688.193981255455"/>
<circle class="e" cx="-727.622620139478" r="727.622620139478"/>
<circle class="e" cx="-772.045868808186" r="772.045868808186"/>
<circle class="e" cx="-822.462253388388" r="822.462253388388"/>
<circle class="e" cx="-880.155620549256" r="880.155620549256"/>
<circle class="e" cx="-946.804875830373" r="946.804875830373"/>
<circle class="e" cx="-1024.64859116015" r="1024.64859116015"/>
<circle class="e" cx="-1116.73939832159" r="1116.73939832159"/>
<circle class="e" cx="-1227.35101852794" r="1227.35101852794"/>
<circle class="e" cx="-1362.65664508209" r="1362.65664508209"/>
<circle class="e" cx="-1531.91611306742" r="1531.91611306742"/>
<circle class="e" cx="-1749.68064310077" r="1749.68064310077"/>
<circle class="e" cx="-2040.20232888636" r="2040.20232888636"/>
<circle class="e" cx="-2447.13500989102" r="2447.13500989102"/>
<circle class="e" cx="-3057.78645310246" r="3057.78645310246"/>
<circle class="e" cx="-4075.87489839683" r="4075.87489839683"/>
<circle class="e" cx="-6112.55524014674" r="6112.55524014674"/>
<circle class="e" cx="-12223.6022987521" r="12223.6022987521"/>
<circle class="m" r="0"/>
<line class="e" x1="0" y1="384" x2="0" y2="-384"/>
<circle class="m" r="6.03160984773914"/>
<circle class="e" cx="12223.6022987521" r="12223.6022987521"/>
<circle class="m" r="12.0617314860013"/>
<circle class="e" cx="6112.55524014674" r="6112.55524014674"/>
<circle class="m" r="18.0888770725028"/>
<circle class="e" cx="4075.87489839683" r="4075.87489839683"/>
<circle class="m" r="24.1115594992563"/>
<circle class="e" cx="3057.78645310246" r="3057.78645310246"/>
<circle class="m" r="30.1282927594925"/>
<circle class="e" cx="2447.13500989102" r="2447.13500989102"/>
<circle class="m" r="36.1375923143095"/>
<circle class="e" cx="2040.20232888636" r="2040.20232888636"/>
<circle class="m" r="42.1379754589614"/>
<circle class="e" cx="1749.68064310077" r="1749.68064310077"/>
<circle class="m" r="48.1279616886928"/>
<circle class="e" cx="1531.91611306742" r="1531.91611306742"/>
<circle class="m" r="54.1060730640317"/>
<circle class="e" cx="1362.65664508209" r="1362.65664508209"/>
<circle class="m" r="60.0708345754487"/>
<circle class="e" cx="1227.35101852794" r="1227.35101852794"/>
<circle class="m" r="66.0207745072933"/>
<circle class="e" cx="1116.73939832159" r="1116.73939832159"/>
<circle class="m" r="71.9544248009182"/>
<circle class="e" cx="1024.64859116015" r="1024.64859116015"/>
<circle class="m" r="77.8703214169008"/>
<circle class="e" cx="946.804875830373" r="946.804875830373"/>
<circle class="m" r="83.7670046962724"/>
<circle class="e" cx="880.155620549256" r="880.155620549256"/>
<circle class="m" r="89.6430197206677"/>
<circle class="e" cx="822.462253388388" r="822.462253388388"/>
<circle class="m" r="95.4969166713042"/>
<circle class="e" cx="772.045868808186" r="772.045868808186"/>
<circle class="m" r="101.327251186703"/>
<circle class="e" cx="727.622620139478" r="727.622620139478"/>
<circle class="m" r="107.132584719064"/>
<circle class="e" cx="688.193981255455" r="688.193981255455"/>
<circle class="m" r="112.911484889205"/>
<circle class="e" cx="652.971662469466" r="652.971662469466"/>
<circle class="m" r="118.66252583998"/>
<circle class="e" cx="621.32505167996" r="621.32505167996"/>
<circle class="m" r="124.384288588089"/>
<circle class="e" cx="592.743672347216" r="592.743672347216"/>
<circle class="m" r="130.075361374192"/>
<circle class="e" cx="566.809880219393" r="566.809880219393"/>
<circle class="m" r="135.734340011235"/>
<circle class="e" cx="543.178682667168" r="543.178682667168"/>
<circle class="m" r="141.359828230916"/>
<circle class="e" cx="521.562603199847" r="521.562603199847"/>
<circle class="m" r="146.950438028194"/>
<circle class="e" cx="501.720178512529" r="501.720178512529"/>
<circle class="m" r="152.504790003756"/>
<circle class="e" cx="483.447110075587" r="483.447110075587"/>
<circle class="m" r="158.021513704362"/>
<circle class="e" cx="466.569382052217" r="466.569382052217"/>
<circle class="m" r="163.499247960988"/>
<circle class="e" cx="450.937853962435" r="450.937853962435"/>
<circle class="m" r="168.936641224671"/>
<circle class="e" cx="436.423972120696" r="436.423972120696"/>
<circle class="m" r="174.332351899986"/>
<circle class="e" cx="422.916338800371" r="422.916338800371"/>
<circle class="m" r="179.68504867606"/>
<circle class="e" cx="410.317945445301" r="410.317945445301"/>
<circle class="m" r="184.993410855059"/>
<circle class="e" cx="398.543924668568" r="398.543924668568"/>
<circle class="m" r="190.256128678044"/>
<circle class="e" cx="387.519710993195" r="387.519710993195"/>
<circle class="m" r="195.471903648143"/>
<circle class="e" cx="377.179526182512" r="377.179526182512"/>
<circle class="m" r="200.639448850924"/>
<circle class="e" cx="367.465124242741" r="367.465124242741"/>
<circle class="m" r="205.757489271935"/>
<circle class="e" cx="358.324745606509" r="358.324745606509"/>
<circle class="m" r="210.824762111283"/>
<circle class="e" cx="349.712240923024" r="349.712240923024"/>
<circle class="m" r="215.840017095218"/>
<circle class="e" cx="341.586333212134" r="341.586333212134"/>
<circle class="m" r="220.802016784619"/>
<circle class="e" cx="333.909993548283" r="333.909993548283"/>
<circle class="m" r="225.70953688031"/>
<circle class="e" cx="326.649910407183" r="326.649910407183"/>
<circle class="m" r="230.561366525139"/>
<circle class="e" cx="319.776036684624" r="319.776036684624"/>
<circle class="m" r="235.356308602743"/>
<circle class="e" cx="313.26120144264" r="313.26120144264"/>
<circle class="m" r="240.093180032911"/>
<circle class="e" cx="307.080775846668" r="307.080775846668"/>
<circle class="m" r="244.770812063497"/>
<circle class="e" cx="301.21238467303" r="301.21238467303"/>
<circle class="m" r="249.388050558791"/>
<circle class="e" cx="295.635656298694" r="295.635656298694"/>
<circle class="m" r="253.943756284282"/>
<circle class="e" cx="290.332005317995" r="290.332005317995"/>
<circle class="m" r="258.436805187753"/>
<circle class="e" cx="285.28444292769" r="285.28444292769"/>
<circle class="m" r="262.866088676616"/>
<circle class="e" cx="280.477411031523" r="280.477411031523"/>
<circle class="m" r="267.230513891449"/>
<circle class="e" cx="275.896636676562" r="275.896636676562"/>
<circle class="m" r="271.529003975634"/>
<circle class="e" cx="271.529003975634" r="271.529003975634"/>
<circle class="m" r="275.760498341064"/>
<circle class="e" cx="267.36244111661" r="267.36244111661"/>
<circle class="m" r="279.923952929822"/>
<circle class="e" cx="263.385820428464" r="263.385820428464"/>
<circle class="m" r="284.018340471786"/>
<circle class="e" cx="259.588869780485" r="259.588869780485"/>
<circle class="m" r="288.042650738096"/>
<circle class="e" cx="255.962093846433" r="255.962093846433"/>
<circle class="m" r="291.995890790412"/>
<circle class="e" cx="252.496703979031" r="252.496703979031"/>
<circle class="m" r="295.877085225903"/>
<circle class="e" cx="249.184555619468" r="249.184555619468"/>
<circle class="m" r="299.685276417919"/>
<circle class="e" cx="246.01809231757" r="246.01809231757"/>
<circle class="m" r="303.419524752265"/>
<circle class="e" cx="242.990295565841" r="242.990295565841"/>
<circle class="m" r="307.078908859043"/>
<circle class="e" cx="240.094639758679" r="240.094639758679"/>
<circle class="m" r="310.66252583998"/>
<circle class="e" cx="237.32505167996" r="237.32505167996"/>
<circle class="m" r="314.169491491209"/>
<circle class="e" cx="234.675874000525" r="234.675874000525"/>
<circle class="m" r="317.598940521432"/>
<circle class="e" cx="232.141832334056" r="232.141832334056"/>
<circle class="m" r="320.950026765416"/>
<circle class="e" cx="229.718005457243" r="229.718005457243"/>
<circle class="m" r="324.221923392774"/>
<circle class="e" cx="227.399798349488" r="227.399798349488"/>
<circle class="m" r="327.413823111971"/>
<circle class="e" cx="225.18291774989" r="225.18291774989"/>
<circle class="m" r="330.524938369514"/>
<circle class="e" cx="223.063349965971" r="223.063349965971"/>
<circle class="m" r="333.554501544265"/>
<circle class="e" cx="221.037340700424" r="221.037340700424"/>
<circle class="m" r="336.501765136844"/>
<circle class="e" cx="219.10137668971" r="219.10137668971"/>
<circle class="m" r="339.366001954058"/>
<circle class="e" cx="217.252168972368" r="217.252168972368"/>
<circle class="m" r="342.146505288333"/>
<circle class="e" cx="215.486637625797" r="215.486637625797"/>
<circle class="m" r="344.842589092076"/>
<circle class="e" cx="213.801897828559" r="213.801897828559"/>
<circle class="m" r="347.453588146952"/>
<circle class="e" cx="212.195247121229" r="212.195247121229"/>
<circle class="m" r="349.978858228011"/>
<circle class="e" cx="210.664153752871" r="210.664153752871"/>
<circle class="m" r="352.417776262649"/>
<circle class="e" cx="209.206246012551" r="209.206246012551"/>
<circle class="m" r="354.769740484334"/>
<circle class="e" cx="207.81930245614" r="207.81930245614"/>
<circle class="m" r="357.034170581089"/>
<circle class="e" cx="206.501242948272" r="206.501242948272"/>
<circle class="m" r="359.210507838669"/>
<circle class="e" cx="205.250120447794" r="205.250120447794"/>
<circle class="m" r="361.298215278423"/>
<circle class="e" cx="204.064113472534" r="204.064113472534"/>
<circle class="m" r="363.296777789777"/>
<circle class="e" cx="202.941519185901" r="202.941519185901"/>
<circle class="m" r="365.205702257339"/>
<circle class="e" cx="201.880747053747" r="201.880747053747"/>
<circle class="m" r="367.024517682559"/>
<circle class="e" cx="200.880313025212" r="200.880313025212"/>
<circle class="m" r="368.752775299946"/>
<circle class="e" cx="199.938834195971" r="199.938834195971"/>
<circle class="m" r="370.390048687794"/>
<circle class="e" cx="199.055023916547" r="199.055023916547"/>
<circle class="m" r="371.935933873394"/>
<circle class="e" cx="198.227687312129" r="198.227687312129"/>
<circle class="m" r="373.390049432708"/>
<circle class="e" cx="197.45571718372" r="197.45571718372"/>
<circle class="m" r="374.752036584479"/>
<circle class="e" cx="196.738090263533" r="196.738090263533"/>
<circle class="m" r="376.021559278758"/>
<circle class="e" cx="196.073863800301" r="196.073863800301"/>
<circle class="m" r="377.198304279816"/>
<circle class="e" cx="195.46217245268" r="195.46217245268"/>
<circle class="m" r="378.281981243433"/>
<circle class="e" cx="194.9022254712" r="194.9022254712"/>
<circle class="m" r="379.272322788533"/>
<circle class="e" cx="194.393304151297" r="194.393304151297"/>
<circle class="m" r="380.169084563158"/>
<circle class="e" cx="193.934759541847" r="193.934759541847"/>
<circle class="m" r="380.972045304759"/>
<circle class="e" cx="193.526010395385" r="193.526010395385"/>
<circle class="m" r="381.681006894789"/>
<circle class="e" cx="193.166541347768" r="193.166541347768"/>
<circle class="m" r="382.295794407583"/>
<circle class="e" cx="192.855901316548" r="192.855901316548"/>
<circle class="m" r="382.816256153521"/>
<circle class="e" cx="192.593702108703" r="192.593702108703"/>
<circle class="m" r="383.242263716456"/>
<circle class="e" cx="192.379617229659" r="192.379617229659"/>
<circle class="m" r="383.573711985396"/>
<circle class="e" cx="192.213380886767" r="192.213380886767"/>
<circle class="m" r="383.810519180441"/>
<circle class="e" cx="192.094787181532" r="192.094787181532"/>
<circle class="m" r="383.952626872958"/>
<circle class="e" cx="192.023689486034" r="192.023689486034"/>
<circle class="m" r="384"/>
<circle class="e" cx="192" r="192"/>
<circle class="unit" r="384"/>
</g>
</svg>
