<?xml version="1.0" standalone="no"?>
<?xml-stylesheet href="style.css" type="text/css"?>
<svg xmlns="http://www.w3.org/2000/svg" xmlns:xlink="http://www.w3.org/1999/xlink" version="1.1"
    width="768" height="768" viewBox="0 0 768 768">
<defs>
<g id="g32">
<circle class="e" cx="-192" r="192"/>
<circle class="e" cx="-192.231551322315" r="192.231551322315"/>
<circle class="e" cx="-192.929005896252" r="192.929005896252"/>
<circle class="e" cx="-194.100848600657" r="194.100848600657"/>
<circle class="e" cx="-195.761502375997" r="195.761502375997"/>
<circle class="e" cx="-197.931767010288" r="197.931767010288"/>
<circle class="e" cx="-200.639468136841" r="200.639468136841"/>
<circle class="e" cx="-203.920354978477" r="203.920354978477"/>
<circle class="e" cx="-207.81930245614" r="207.81930245614"/>
<circle class="e" cx="-212.391896077227" r="212.391896077227"/>
<circle class="e" cx="-217.706509369481" r="217.706509369481"/>
<circle class="e" cx="-223.847027791155" r="223.847027791155"/>
<circle class="e" cx="-230.916436583057" r="230.916436583057"/>
<circle class="e" cx="-239.041583245695" r="239.041583245695"/>
<circle class="e" cx="-248.379564810236" r="248.379564810236"/>
<circle class="e" cx="-259.126403118722" r="259.126403118722"/>
<circle class="e" cx="-271.529003975634" r="271.529003975634"/>
<circle class="e" cx="-285.901928064883" r="285.901928064883"/>
<circle class="e" cx="-302.65137540528" r="302.65137540528"/>
<circle class="e" cx="-322.310263839562" r="322.310263839562"/>
<circle class="e" cx="-345.590869684384" r="345.590869684384"/>
<circle class="e" cx="-373.466203338993" r="373.466203338993"/>
<circle class="e" cx="-407.300231420293" r="407.300231420293"/>
<circle class="e" cx="-449.064934438228" r="449.064934438228"/>
<circle class="e" cx="-501.720178512529" r="501.720178512529"/>
<circle class="e" cx="-569.91921266464" r="569.91921266464"/>
<circle class="e" cx="-661.41968572352" r="661.41968572352"/>
<circle class="e" cx="-790.18790782211" r="790.18790782211"/>
<circle class="e" cx="-984.159531932738" r="984.159531932738"/>
<circle class="e" cx="-1308.52163269199" r="1308.52163269199"/>
<circle class="e" cx="-1958.84106957664" r="1958.84106957664"/>
<circle class="e" cx="-3912.96311944245" r="3912.96311944245"/>
<circle class="m" r="0"/>
<circle class="m" r="18.8419869417285"/>
<circle class="e" cx="3912.96311944245" r="3912.96311944245"/>
<circle class="m" r="37.6385818865513"/>
<circle class="e" cx="1958.84106957664" r="1958.84106957664"/>
<circle class="m" r="56.3445021908589"/>
<circle class="e" cx="1308.52163269199" r="1308.52163269199"/>
<circle class="m" r="74.9146836541933"/>
<circle class="e" cx="984.159531932738" r="984.159531932738"/>
<circle class="m" r="93.3043890828533"/>
<circle class="e" cx="790.18790782211" r="790.18790782211"/>
<circle class="m" r="111.469316065714"/>
<circle class="e" cx="661.41968572352" r="661.41968572352"/>
<circle class="m" r="129.365703702613"/>
<circle class="e" cx="569.91921266464" r="569.91921266464"/>
<circle class="m" r="146.950438028194"/>
<circle class="e" cx="501.720178512529" r="501.720178512529"/>
<circle class="m" r="164.181155877228"/>
<circle class="e" cx="449.064934438228" r="449.064934438228"/>
<circle class="m" r="181.016346941183"/>
<circle class="e" cx="407.300231420293" r="407.300231420293"/>
<circle class="m" r="197.415453770197"/>
<circle class="e" cx="373.466203338993" r="373.466203338993"/>
<circle class="m" r="213.338969479527"/>
<circle class="e" cx="345.590869684384" r="345.590869684384"/>
<circle class="m" r="228.748532925094"/>
<circle class="e" cx="322.310263839562" r="322.310263839562"/>
<circle class="m" r="243.60702111884"/>
<circle class="e" cx="302.65137540528" r="302.65137540528"/>
<circle class="m" r="257.878638661255"/>
<circle class="e" cx="285.901928064883" r="285.901928064883"/>
<circle class="m" r="271.529003975634"/>
<circle class="e" cx="271.529003975634" r="271.529003975634"/>
<circle class="m" r="284.525232136304"/>
<circle class="e" cx="259.126403118722" r="259.126403118722"/>
<circle class="m" r="296.836014091291"/>
<circle class="e" cx="248.379564810236" r="248.379564810236"/>
<circle class="m" r="308.431692088568"/>
<circle class="e" cx="239.041583245695" r="239.041583245695"/>
<circle class="m" r="319.284331124177"/>
<circle class="e" cx="230.916436583057" r="230.916436583057"/>
<circle class="m" r="329.367786240104"/>
<circle class="e" cx="223.847027791155" r="223.847027791155"/>
<circle class="m" r="338.657765509768"/>
<circle class="e" cx="217.706509369481" r="217.706509369481"/>
<circle class="m" r="347.131888559402"/>
<circle class="e" cx="212.391896077227" r="212.391896077227"/>
<circle class="m" r="354.769740484334"/>
<circle class="e" cx="207.81930245614" r="207.81930245614"/>
<circle class="m" r="361.55292103028"/>
<circle class="e" cx="203.920354978477" r="203.920354978477"/>
<circle class="m" r="367.465088921168"/>
<circle class="e" cx="200.639468136841" r="200.639468136841"/>
<circle class="m" r="372.492001226705"/>
<circle class="e" cx="197.931767010288" r="197.931767010288"/>
<circle class="m" r="376.62154767484"/>
<circle class="e" cx="195.761502375997" r="195.761502375997"/>
<circle class="m" r="379.843779826476"/>
<circle class="e" cx="194.100848600657" r="194.100848600657"/>
<circle class="m" r="382.150935042124"/>
<circle class="e" cx="192.929005896252" r="192.929005896252"/>
<circle class="m" r="383.537455182786"/>
<circle class="e" cx="192.231551322315" r="192.231551322315"/>
<circle class="m" r="384"/>
<circle class="e" cx="192" r="192"/>
<line class="e" x1="0" y1="7825.92623888491" x2="0" y2="-7825.92623888491"/>
<circle class="shell" r="7825.92623888491"/>
<circle class="unit" r="384"/>
<circle class="unit" cx="192"  r="192"/>
<circle class="unit" cx="-192" r="192"/>
</g>
</defs>
<g id="g" transform="translate(384,384)">
    <use xlink:href="#g32"/>
    <use xlink:href="#g32" transform="scale(0.049067674327418)"/>
</g>
</svg>
