<?xml version="1.0" encoding="UTF-8" standalone="no"?>
<?xml-stylesheet href="style.css" type="text/css"?><svg
   xmlns:dc="http://purl.org/dc/elements/1.1/"
   xmlns:cc="http://creativecommons.org/ns#"
   xmlns:rdf="http://www.w3.org/1999/02/22-rdf-syntax-ns#"
   xmlns:svg="http://www.w3.org/2000/svg"
   xmlns="http://www.w3.org/2000/svg"
   xmlns:sodipodi="http://sodipodi.sourceforge.net/DTD/sodipodi-0.dtd"
   xmlns:inkscape="http://www.inkscape.org/namespaces/inkscape"
   version="1.1"
   width="768"
   height="768"
   viewBox="0 0 768 768"
   id="svg3050"
   inkscape:version="0.48.2 r9819"
   sodipodi:docname="circ2+.svg">
  <metadata
     id="metadata3075">
    <rdf:RDF>
      <cc:Work
         rdf:about="">
        <dc:format>image/svg+xml</dc:format>
        <dc:type
           rdf:resource="http://purl.org/dc/dcmitype/StillImage" />
        <dc:title></dc:title>
      </cc:Work>
    </rdf:RDF>
  </metadata>
  <defs
     id="defs3073" />
  <sodipodi:namedview
     pagecolor="#ffffff"
     bordercolor="#666666"
     borderopacity="1"
     objecttolerance="10"
     gridtolerance="10"
     guidetolerance="10"
     inkscape:pageopacity="0"
     inkscape:pageshadow="2"
     inkscape:window-width="1872"
     inkscape:window-height="1036"
     id="namedview3071"
     showgrid="false"
     inkscape:zoom="0.63652321"
     inkscape:cx="519.64483"
     inkscape:cy="216.66056"
     inkscape:window-x="0"
     inkscape:window-y="0"
     inkscape:window-maximized="1"
     inkscape:current-layer="svg3050" />
  <g
     id="g4542">
    <g
       style="fill:none;stroke:#000000;stroke-opacity:1"
       transform="translate(384,384)"
       id="g">
      <circle
         style="fill:none;stroke:#000000;stroke-opacity:1"
         d="m 0,0 c 0,106.03867 -85.961328,192 -192,192 -106.03867,0 -192,-85.96133 -192,-192 0,-106.03867 85.96133,-192 192,-192 106.038672,0 192,85.96133 192,192 z"
         id="circle3053"
         r="192"
         cx="-192"
         class="e" />
      <circle
         style="fill:none;stroke:#000000;stroke-opacity:1"
         d="m 0,0 c 0,149.96132 -121.56767,271.52899 -271.52899,271.52899 -149.96132,0 -271.52899,-121.56767 -271.52899,-271.52899 0,-149.96132 121.56767,-271.52899 271.52899,-271.52899 C -121.56767,-271.52899 0,-149.96132 0,0 z"
         id="circle3055"
         r="271.529003975634"
         cx="-271.529003975634"
         class="e" />
      <circle
         style="fill:none;stroke:#000000;stroke-opacity:1"
         id="circle3057"
         r="0"
         class="m" />
      <line
         style="fill:none;stroke:#000000;stroke-opacity:1"
         id="line3059"
         y2="-384"
         x2="0"
         y1="384"
         x1="0"
         class="e" />
      <circle
         style="fill:none;stroke:#000000;stroke-opacity:1"
         d="M 271.52899,0 C 271.52899,149.96132 149.96132,271.52899 0,271.52899 -149.96132,271.52899 -271.52899,149.96132 -271.52899,0 c 0,-149.96132 121.56767,-271.52899 271.52899,-271.52899 149.96132,0 271.52899,121.56767 271.52899,271.52899 z"
         id="circle3061"
         r="271.529003975634"
         class="m" />
      <circle
         style="fill:none;stroke:#000000;stroke-opacity:1"
         d="m 543.05798,0 c 0,149.96132 -121.56767,271.52899 -271.52899,271.52899 C 121.56767,271.52899 0,149.96132 0,0 c 0,-149.96132 121.56767,-271.52899 271.52899,-271.52899 149.96132,0 271.52899,121.56767 271.52899,271.52899 z"
         id="circle3063"
         r="271.529003975634"
         cx="271.529003975634"
         class="e" />
      <circle
         style="fill:none;stroke:#000000;stroke-opacity:1"
         d="M 384,0 C 384,212.07734 212.07734,384 0,384 -212.07734,384 -384,212.07734 -384,0 c 0,-212.07734 171.92266,-384 384,-384 212.07734,0 384,171.92266 384,384 z"
         id="circle3065"
         r="384"
         class="m" />
      <circle
         style="fill:none;stroke:#000000;stroke-opacity:1"
         d="M 384,0 C 384,106.03867 298.03867,192 192,192 85.961328,192 0,106.03867 0,0 c 0,-106.03867 85.961328,-192 192,-192 106.03867,0 192,85.96133 192,192 z"
         id="circle3067"
         r="192"
         cx="192"
         class="e" />
      <circle
         style="fill:none;stroke:#000000;stroke-opacity:1"
         d="M 384,0 C 384,212.07734 212.07734,384 0,384 -212.07734,384 -384,212.07734 -384,0 c 0,-212.07734 171.92266,-384 384,-384 212.07734,0 384,171.92266 384,384 z"
         id="circle3069"
         r="384"
         class="unit" />
    </g>
  </g>
  <g
     id="g4554"
     transform="matrix(0.70720362,0,0,0.70720362,112.43381,112.43381)">
    <g
       id="g4556"
       transform="translate(384,384)"
       style="fill:none;stroke:#000000;stroke-opacity:1">
      <circle
         class="e"
         cx="-192"
         r="192"
         id="circle4558"
         d="m 0,0 c 0,106.03867 -85.961328,192 -192,192 -106.03867,0 -192,-85.96133 -192,-192 0,-106.03867 85.96133,-192 192,-192 106.038672,0 192,85.96133 192,192 z"
         style="fill:none;stroke:#000000;stroke-opacity:1"
         cy="0"
         sodipodi:cx="-192"
         sodipodi:cy="0"
         sodipodi:rx="192"
         sodipodi:ry="192" />
      <circle
         class="e"
         cx="-271.52899"
         r="271.52899"
         id="circle4560"
         d="m 0,0 c 0,149.96132 -121.56767,271.52899 -271.52899,271.52899 -149.96132,0 -271.52899,-121.56767 -271.52899,-271.52899 0,-149.96132 121.56767,-271.52899 271.52899,-271.52899 C -121.56767,-271.52899 0,-149.96132 0,0 z"
         style="fill:none;stroke:#000000;stroke-opacity:1"
         cy="0"
         sodipodi:cx="-271.52899"
         sodipodi:cy="0"
         sodipodi:rx="271.52899"
         sodipodi:ry="271.52899" />
      <circle
         class="m"
         r="0"
         id="circle4562"
         style="fill:none;stroke:#000000;stroke-opacity:1"
         cx="0"
         cy="0"
         sodipodi:cx="0"
         sodipodi:cy="0"
         sodipodi:rx="0"
         sodipodi:ry="0" />
      <line
         class="e"
         x1="0"
         y1="384"
         x2="0"
         y2="-384"
         id="line4564"
         style="fill:none;stroke:#000000;stroke-opacity:1" />
      <circle
         class="m"
         r="271.52899"
         id="circle4566"
         d="M 271.52899,0 C 271.52899,149.96132 149.96132,271.52899 0,271.52899 -149.96132,271.52899 -271.52899,149.96132 -271.52899,0 c 0,-149.96132 121.56767,-271.52899 271.52899,-271.52899 149.96132,0 271.52899,121.56767 271.52899,271.52899 z"
         style="fill:none;stroke:#000000;stroke-opacity:1"
         cx="0"
         cy="0"
         sodipodi:cx="0"
         sodipodi:cy="0"
         sodipodi:rx="271.52899"
         sodipodi:ry="271.52899" />
      <circle
         class="e"
         cx="271.52899"
         r="271.52899"
         id="circle4568"
         d="m 543.05798,0 c 0,149.96132 -121.56767,271.52899 -271.52899,271.52899 C 121.56767,271.52899 0,149.96132 0,0 c 0,-149.96132 121.56767,-271.52899 271.52899,-271.52899 149.96132,0 271.52899,121.56767 271.52899,271.52899 z"
         style="fill:none;stroke:#000000;stroke-opacity:1"
         cy="0"
         sodipodi:cx="271.52899"
         sodipodi:cy="0"
         sodipodi:rx="271.52899"
         sodipodi:ry="271.52899" />
      <circle
         class="m"
         r="384"
         id="circle4570"
         d="M 384,0 C 384,212.07734 212.07734,384 0,384 -212.07734,384 -384,212.07734 -384,0 c 0,-212.07734 171.92266,-384 384,-384 212.07734,0 384,171.92266 384,384 z"
         style="fill:none;stroke:#000000;stroke-opacity:1"
         cx="0"
         cy="0"
         sodipodi:cx="0"
         sodipodi:cy="0"
         sodipodi:rx="384"
         sodipodi:ry="384" />
      <circle
         class="e"
         cx="192"
         r="192"
         id="circle4572"
         d="M 384,0 C 384,106.03867 298.03867,192 192,192 85.961328,192 0,106.03867 0,0 c 0,-106.03867 85.961328,-192 192,-192 106.03867,0 192,85.96133 192,192 z"
         style="fill:none;stroke:#000000;stroke-opacity:1"
         cy="0"
         sodipodi:cx="192"
         sodipodi:cy="0"
         sodipodi:rx="192"
         sodipodi:ry="192" />
      <circle
         class="unit"
         r="384"
         id="circle4574"
         d="M 384,0 C 384,212.07734 212.07734,384 0,384 -212.07734,384 -384,212.07734 -384,0 c 0,-212.07734 171.92266,-384 384,-384 212.07734,0 384,171.92266 384,384 z"
         style="fill:none;stroke:#000000;stroke-opacity:1"
         cx="0"
         cy="0"
         sodipodi:cx="0"
         sodipodi:cy="0"
         sodipodi:rx="384"
         sodipodi:ry="384" />
    </g>
  </g>
  <g
     transform="matrix(0.35482659,0,0,0.35482659,247.74659,247.74659)"
     id="g4576">
    <g
       style="fill:none;stroke:#000000;stroke-opacity:1"
       transform="translate(384,384)"
       id="g4578">
      <circle
         sodipodi:ry="192"
         sodipodi:rx="192"
         sodipodi:cy="0"
         sodipodi:cx="-192"
         cy="0"
         style="fill:none;stroke:#000000;stroke-opacity:1"
         d="m 0,0 c 0,106.03867 -85.961328,192 -192,192 -106.03867,0 -192,-85.96133 -192,-192 0,-106.03867 85.96133,-192 192,-192 106.038672,0 192,85.96133 192,192 z"
         id="circle4580"
         r="192"
         cx="-192"
         class="e" />
      <circle
         sodipodi:ry="271.52899"
         sodipodi:rx="271.52899"
         sodipodi:cy="0"
         sodipodi:cx="-271.52899"
         cy="0"
         style="fill:none;stroke:#000000;stroke-opacity:1"
         d="m 0,0 c 0,149.96132 -121.56767,271.52899 -271.52899,271.52899 -149.96132,0 -271.52899,-121.56767 -271.52899,-271.52899 0,-149.96132 121.56767,-271.52899 271.52899,-271.52899 C -121.56767,-271.52899 0,-149.96132 0,0 z"
         id="circle4582"
         r="271.52899"
         cx="-271.52899"
         class="e" />
      <circle
         sodipodi:ry="0"
         sodipodi:rx="0"
         sodipodi:cy="0"
         sodipodi:cx="0"
         cy="0"
         cx="0"
         style="fill:none;stroke:#000000;stroke-opacity:1"
         id="circle4584"
         r="0"
         class="m" />
      <line
         style="fill:none;stroke:#000000;stroke-opacity:1"
         id="line4586"
         y2="-384"
         x2="0"
         y1="384"
         x1="0"
         class="e" />
      <circle
         sodipodi:ry="271.52899"
         sodipodi:rx="271.52899"
         sodipodi:cy="0"
         sodipodi:cx="0"
         cy="0"
         cx="0"
         style="fill:none;stroke:#000000;stroke-opacity:1"
         d="M 271.52899,0 C 271.52899,149.96132 149.96132,271.52899 0,271.52899 -149.96132,271.52899 -271.52899,149.96132 -271.52899,0 c 0,-149.96132 121.56767,-271.52899 271.52899,-271.52899 149.96132,0 271.52899,121.56767 271.52899,271.52899 z"
         id="circle4588"
         r="271.52899"
         class="m" />
      <circle
         sodipodi:ry="271.52899"
         sodipodi:rx="271.52899"
         sodipodi:cy="0"
         sodipodi:cx="271.52899"
         cy="0"
         style="fill:none;stroke:#000000;stroke-opacity:1"
         d="m 543.05798,0 c 0,149.96132 -121.56767,271.52899 -271.52899,271.52899 C 121.56767,271.52899 0,149.96132 0,0 c 0,-149.96132 121.56767,-271.52899 271.52899,-271.52899 149.96132,0 271.52899,121.56767 271.52899,271.52899 z"
         id="circle4590"
         r="271.52899"
         cx="271.52899"
         class="e" />
      <circle
         sodipodi:ry="384"
         sodipodi:rx="384"
         sodipodi:cy="0"
         sodipodi:cx="0"
         cy="0"
         cx="0"
         style="fill:none;stroke:#000000;stroke-opacity:1"
         d="M 384,0 C 384,212.07734 212.07734,384 0,384 -212.07734,384 -384,212.07734 -384,0 c 0,-212.07734 171.92266,-384 384,-384 212.07734,0 384,171.92266 384,384 z"
         id="circle4592"
         r="384"
         class="m" />
      <circle
         sodipodi:ry="192"
         sodipodi:rx="192"
         sodipodi:cy="0"
         sodipodi:cx="192"
         cy="0"
         style="fill:none;stroke:#000000;stroke-opacity:1"
         d="M 384,0 C 384,106.03867 298.03867,192 192,192 85.961328,192 0,106.03867 0,0 c 0,-106.03867 85.961328,-192 192,-192 106.03867,0 192,85.96133 192,192 z"
         id="circle4594"
         r="192"
         cx="192"
         class="e" />
      <circle
         sodipodi:ry="384"
         sodipodi:rx="384"
         sodipodi:cy="0"
         sodipodi:cx="0"
         cy="0"
         cx="0"
         style="fill:none;stroke:#000000;stroke-opacity:1"
         d="M 384,0 C 384,212.07734 212.07734,384 0,384 -212.07734,384 -384,212.07734 -384,0 c 0,-212.07734 171.92266,-384 384,-384 212.07734,0 384,171.92266 384,384 z"
         id="circle4596"
         r="384"
         class="unit" />
    </g>
  </g>
  <g
     id="g4598"
     transform="matrix(0.25077652,0,0,0.25077652,287.70182,287.70182)">
    <g
       id="g4600"
       transform="translate(384,384)"
       style="fill:none;stroke:#000000;stroke-opacity:1">
      <circle
         class="e"
         cx="-192"
         r="192"
         id="circle4602"
         d="m 0,0 c 0,106.03867 -85.961328,192 -192,192 -106.03867,0 -192,-85.96133 -192,-192 0,-106.03867 85.96133,-192 192,-192 106.038672,0 192,85.96133 192,192 z"
         style="fill:none;stroke:#000000;stroke-opacity:1"
         cy="0"
         sodipodi:cx="-192"
         sodipodi:cy="0"
         sodipodi:rx="192"
         sodipodi:ry="192" />
      <circle
         class="e"
         cx="-271.52899"
         r="271.52899"
         id="circle4604"
         d="m 0,0 c 0,149.96132 -121.56767,271.52899 -271.52899,271.52899 -149.96132,0 -271.52899,-121.56767 -271.52899,-271.52899 0,-149.96132 121.56767,-271.52899 271.52899,-271.52899 C -121.56767,-271.52899 0,-149.96132 0,0 z"
         style="fill:none;stroke:#000000;stroke-opacity:1"
         cy="0"
         sodipodi:cx="-271.52899"
         sodipodi:cy="0"
         sodipodi:rx="271.52899"
         sodipodi:ry="271.52899" />
      <circle
         class="m"
         r="0"
         id="circle4606"
         style="fill:none;stroke:#000000;stroke-opacity:1"
         cx="0"
         cy="0"
         sodipodi:cx="0"
         sodipodi:cy="0"
         sodipodi:rx="0"
         sodipodi:ry="0" />
      <line
         class="e"
         x1="0"
         y1="384"
         x2="0"
         y2="-384"
         id="line4608"
         style="fill:none;stroke:#000000;stroke-opacity:1" />
      <circle
         class="m"
         r="271.52899"
         id="circle4610"
         d="M 271.52899,0 C 271.52899,149.96132 149.96132,271.52899 0,271.52899 -149.96132,271.52899 -271.52899,149.96132 -271.52899,0 c 0,-149.96132 121.56767,-271.52899 271.52899,-271.52899 149.96132,0 271.52899,121.56767 271.52899,271.52899 z"
         style="fill:none;stroke:#000000;stroke-opacity:1"
         cx="0"
         cy="0"
         sodipodi:cx="0"
         sodipodi:cy="0"
         sodipodi:rx="271.52899"
         sodipodi:ry="271.52899" />
      <circle
         class="e"
         cx="271.52899"
         r="271.52899"
         id="circle4612"
         d="m 543.05798,0 c 0,149.96132 -121.56767,271.52899 -271.52899,271.52899 C 121.56767,271.52899 0,149.96132 0,0 c 0,-149.96132 121.56767,-271.52899 271.52899,-271.52899 149.96132,0 271.52899,121.56767 271.52899,271.52899 z"
         style="fill:none;stroke:#000000;stroke-opacity:1"
         cy="0"
         sodipodi:cx="271.52899"
         sodipodi:cy="0"
         sodipodi:rx="271.52899"
         sodipodi:ry="271.52899" />
      <circle
         class="m"
         r="384"
         id="circle4614"
         d="M 384,0 C 384,212.07734 212.07734,384 0,384 -212.07734,384 -384,212.07734 -384,0 c 0,-212.07734 171.92266,-384 384,-384 212.07734,0 384,171.92266 384,384 z"
         style="fill:none;stroke:#000000;stroke-opacity:1"
         cx="0"
         cy="0"
         sodipodi:cx="0"
         sodipodi:cy="0"
         sodipodi:rx="384"
         sodipodi:ry="384" />
      <circle
         class="e"
         cx="192"
         r="192"
         id="circle4616"
         d="M 384,0 C 384,106.03867 298.03867,192 192,192 85.961328,192 0,106.03867 0,0 c 0,-106.03867 85.961328,-192 192,-192 106.03867,0 192,85.96133 192,192 z"
         style="fill:none;stroke:#000000;stroke-opacity:1"
         cy="0"
         sodipodi:cx="192"
         sodipodi:cy="0"
         sodipodi:rx="192"
         sodipodi:ry="192" />
      <circle
         class="unit"
         r="384"
         id="circle4618"
         d="M 384,0 C 384,212.07734 212.07734,384 0,384 -212.07734,384 -384,212.07734 -384,0 c 0,-212.07734 171.92266,-384 384,-384 212.07734,0 384,171.92266 384,384 z"
         style="fill:none;stroke:#000000;stroke-opacity:1"
         cx="0"
         cy="0"
         sodipodi:cx="0"
         sodipodi:cy="0"
         sodipodi:rx="384"
         sodipodi:ry="384" />
    </g>
  </g>
</svg>
